/* XPM */
static char *rsz_grammy_statue_pmc__1__removebg_preview1687277828[] = {
/* columns rows colors chars-per-pixel */
"64 62 237 2 ",
"   c None",
".  c #010000",
"X  c #0B0101",
"o  c #0D0907",
"O  c #140201",
"+  c #1A0503",
"@  c #110A05",
"#  c #1D0A01",
"$  c #120D09",
"%  c #190C0A",
"&  c #1C130A",
"*  c #171107",
"=  c #171717",
"-  c #230E02",
";  c #241302",
":  c #291603",
">  c #2C1A06",
",  c #2D1C09",
"<  c #27150B",
"1  c #331E0A",
"2  c #371B05",
"3  c #2B1D14",
"4  c #391F10",
"5  c #35220E",
"6  c #3A240E",
"7  c #3D2207",
"8  c #392611",
"9  c #3D2A15",
"0  c #3F2D19",
"q  c #362411",
"w  c #282728",
"e  c #373737",
"r  c #4B2B0C",
"t  c #4A2705",
"y  c #552D0C",
"u  c #4B370F",
"i  c #5B380C",
"p  c #412B16",
"a  c #432E1A",
"s  c #4D2C13",
"d  c #45301B",
"f  c #4F3315",
"g  c #593614",
"h  c #693E0A",
"j  c #653C14",
"k  c #493624",
"l  c #533E32",
"z  c #594211",
"x  c #6A4311",
"c  c #694718",
"v  c #734B1B",
"b  c #7B4C19",
"n  c #794A16",
"m  c #7A5718",
"M  c #70460D",
"N  c #694322",
"B  c #7A532C",
"V  c #714E2C",
"C  c #7B663F",
"Z  c #574835",
"A  c #4D4D4C",
"S  c #564F4A",
"D  c #685A4A",
"F  c #736451",
"G  c #696969",
"H  c #7C6F62",
"J  c #824D05",
"K  c #84520A",
"L  c #8B5509",
"P  c #905404",
"I  c #975D09",
"U  c #82521A",
"Y  c #875618",
"T  c #945E13",
"R  c #925E1C",
"E  c #995F18",
"W  c #A05E0B",
"Q  c #9B610D",
"!  c #966014",
"~  c #9A6215",
"^  c #9C6418",
"/  c #976819",
"(  c #8D6516",
")  c #A9690D",
"_  c #A36614",
"`  c #AB6C15",
"'  c #A2661D",
"]  c #A36A1D",
"[  c #AB6C1B",
"{  c #AD6611",
"}  c #B56E19",
"|  c #AC721C",
" . c #A67417",
".. c #BB7414",
"X. c #B4731B",
"o. c #BA741D",
"O. c #BD791D",
"+. c #B47718",
"@. c #B9700D",
"#. c #885A25",
"$. c #8A5E37",
"%. c #9E6C23",
"&. c #986324",
"*. c #8D6437",
"=. c #926535",
"-. c #996B3B",
";. c #9D713A",
":. c #9E7427",
">. c #A56B24",
",. c #AA6C22",
"<. c #A66C28",
"1. c #AB722B",
"2. c #A97227",
"3. c #B47423",
"4. c #BB7623",
"5. c #BC7923",
"6. c #B57A2A",
"7. c #BB7C2B",
"8. c #B57627",
"9. c #A87537",
"0. c #B57C35",
"q. c #B77C38",
"w. c #B36E21",
"e. c #C37B1C",
"r. c #CB7D19",
"t. c #C57916",
"y. c #C47E23",
"u. c #C27E2A",
"i. c #C97E22",
"p. c #8B6E50",
"a. c #B37E47",
"s. c #AD7B4A",
"d. c #857866",
"f. c #877970",
"g. c #B9841C",
"h. c #BB842B",
"j. c #B38B28",
"k. c #BC823D",
"l. c #BA8437",
"z. c #CD821E",
"x. c #C88A1E",
"c. c #D0831D",
"v. c #D6881C",
"b. c #E6931B",
"n. c #DEA21D",
"m. c #F1A81F",
"M. c #C68223",
"N. c #CB8223",
"B. c #CB822B",
"V. c #C9882B",
"C. c #D28523",
"Z. c #DB8D24",
"A. c #D48A2C",
"S. c #D68A27",
"D. c #DB922A",
"F. c #DD9623",
"G. c #CC8B36",
"H. c #C58B3B",
"J. c #CD8D3A",
"K. c #C68537",
"L. c #D48C33",
"P. c #D18C3C",
"I. c #D88E35",
"U. c #DC9433",
"Y. c #D4923C",
"T. c #DB923C",
"R. c #E69227",
"E. c #E29C3A",
"W. c #ED962B",
"Q. c #D9A428",
"!. c #DDA434",
"~. c #EEAD31",
"^. c #BD8341",
"/. c #B98647",
"(. c #AC8256",
"). c #B78A52",
"_. c #BC995A",
"`. c #93877A",
"'. c #AF8D6A",
"]. c #B99A68",
"[. c #B89B75",
"{. c #C68B46",
"}. c #CA9549",
"|. c #D49245",
" X c #DA9244",
".X c #D5944B",
"XX c #D9974C",
"oX c #C58C52",
"OX c #C69659",
"+X c #DB9B55",
"@X c #DD9D5D",
"#X c #D59956",
"$X c #D28D46",
"%X c #E39B45",
"&X c #E79E4E",
"*X c #E09D56",
"=X c #DAA74C",
"-X c #D8A45A",
";X c #E8A446",
":X c #EBA857",
">X c #F1AF59",
",X c #EBB14C",
"<X c #D89C62",
"1X c #C69865",
"2X c #DFA265",
"3X c #D8A767",
"4X c #C4A678",
"5X c #D6A976",
"6X c #DAB579",
"7X c #E2A56B",
"8X c #E5AA6D",
"9X c #E7A966",
"0X c #F3B263",
"qX c #E6AB73",
"wX c #E9AC74",
"eX c #E9AE7B",
"rX c #ECB17C",
"tX c #EBB276",
"yX c #F2B674",
"uX c #EFC676",
"iX c #988F89",
"pX c #A19990",
"aX c #B6AA9F",
"sX c #D9B786",
"dX c #CBB58E",
"fX c #EAB381",
"gX c #F0B682",
"hX c #CEBFAC",
"jX c #EAC588",
"kX c #E2C598",
"lX c #F0D195",
"zX c #EFD19C",
"xX c #D9C6A5",
"cX c #F2DDB7",
"vX c #EDD6AA",
"bX c #EBE1CF",
"nX c #F8F4E8",
/* pixels */
"                                                                                                                                ",
"                                                    5XH.7.7.}.sX                                                                ",
"                                                OX` ) ' ^ T E @.1X                                                              ",
"                                              6.7.4.3.,.,.' b j  .6X                                                            ",
"                                            3.<X3XJ.o.X.4.X.] g M V.                                                            ",
"                                          6.eXeX7X@XB.X.} 4.,.M q g.vX                                                          ",
"                                        } 8XfX7X2X7X@Xu.X.} >.U ,  .jX                                                          ",
"                                      3.e.G.@XqX2X2X7X.X3.} >.b < ( jX                                                          ",
"                                    oXr.N.e.y.XX7X7X<X#XK.,./ b & ( uX                                                          ",
"                                    +.B.N.i.O.e.G.+X<X<XoX1.R x ; g.lX                                                          ",
"                                  l.e.i.M.B.y.i.t.O.K.oX).a.=.g : V.                                                            ",
"                                  @.B.i.i.i.y.B.y.o.} ,.<.s.*.d u Q.jX                                                          ",
"                                k.t.i.i.e.e.e.y.u.u.8.' R U v & m m.y.                                                          ",
"                                y.I.i.i.i.e.e.y.y.4.w.,./ b r @ x.!.r.}.                                                        ",
"                              4X$X9XXX$X$XB.u.u.e.w.<.&.Y v & z !.tX:X..-X                                                      ",
"                              /.7XeX7X7X2X@X.X$Xu.q.9.&.B f @ g.;XtXqX+X..3X                                                    ",
"                              l.wXeX7X8XqX7X2X<XoXoXs.p.V + z m.;X9X9XwX+X..-X                                                  ",
"                              7.rXqX2X8XqX5X7X<XOX/.p.U 8 # Q.x.7.A.;X9XyX3XM.Y.                                                ",
"                              0.fXqX8X7X7X<XoX^.1.R m r . j.Q.t x K ^ y.%X0XyXY.V.kX                                            ",
"                              7.eX2X#X|.P.u.4.[ T Y i . Y n.5 ; , 3 6 r h I V.>X>XV.3X                                          ",
"                              6.XX$Xu.y.o.o.} >.Y j X c ~.dX              iXp.#.,.;XU.}.                                        ",
"                              ^.4.u.O.O.o.} ,.R g @ m Q.vX                      aX;.G.E.-X                                      ",
"                              sX{ 4.X.4.w.,.U s 3 ( !.cX                            [.l.S.kX                                    ",
"                                /.) w.,.R n g h g.,X                                  '.x.,X                                    ",
"                                  OX| _ Q Q +.=XzX                      cXcXvXzXlXuXuX=XR.m.3X                                  ",
"                                      sXsXjX                  '.2 i 0.7.b.O.%.6.h.h.h.:.m x `.                                  ",
"                                                              a.h y sXbXcXnX          iX> ;                                     ",
"                                                    sX6X@X}.|.U.e.i.I.P.}.9XzXnX      (.Q C                                     ",
"                                                2XM.i.B.P.|.XXXX%X%XP.B.V.c.b.,XxX  xX4.L pX                                    ",
"                                          dX)./ t.C.N.N.B.B.L. XXX&X:X:X>X0X=XU K | / | V                                       ",
"                                      }.5.) ) I P _ ..e.M.z.z.C.C.A.I.H.1.l 8 g | 6.l.{.h._.                                    ",
"                                    l.x.D.D.L.G.h.8.[ _ { [ _ _ _ I P J K Y +.S.V.H./.9.R 9.                                    ",
"                                    F 7 x U %.l.{..X|.V.O.+.` ^ ~ ] 8.K.J.A.O.| <.*.$.>.} 2X                                    ",
"                                    ].J M j g N V #.-.1.V.S.F.Z.o.q.oXq.9.Y =.p.s.{.C.Z.v.-X                                    ",
"                                    ].! _ ^ 2.0.9.*.v j i x m ] >.#.$.#.! (.5XfXyX&XS.C.r.+X                                    ",
"                                    ].P ~ ~ 2.k.{.{.0.^ L M i t Y ,.} i.U.:XtXeXwX%Xi.C.r.+X                                    ",
"                                    4XP E E >.0.k.k.2./ ! Q ~ L N.W.Z.C.L.*XwXeX7X Xi.C.z.XX                                    ",
"                                    4XP / ~ >.q.k.k.1.^ ! ! ! L i.R.c.C.A.+XwXrX7X XC.i.e.XX                                    ",
"                                    4XP ! / >.q.k.a.1.^ T ! ~ K y.R.c.c.A.+XqXeX7X XC.C.v.:X                                    ",
"                                    ].J T ! <.q.{.q.1.^ ! ! ! K e.R.N.r.L.@XwXfXyX;XZ.v.c.O.].xX                                ",
"                                sXY.t.} ~ ~ ^ 0.^.k.<.~ T T ! J o.W.C.c.T.wXyXeX#Xu.3.1.2.[ @.r.L.1X                            ",
"                            p.[ c.R.b.Z.Z.N.7.8.1.1.%.T L Y I m o.W.Z.Z.T.{.q.,.[ 3.J. XU.L.,.v r : # k                         ",
"                        e . . o ; s v >.y.D.E.%X|.J.M.O.} ^ ! J } C...3.[ } ..z.Z.I.k.=.j 3 o . . . ; : f.                      ",
"                        . o . . . . . . + 1 c =.^.Y.U.R.R.v.z.e.` 9.u.J.Z.C.e.>.v p % . . . . . @ - , 9 8                       ",
"                      w . . . . . . . . . . . . X < f b ,.M.R.R.D.T.P.0.U y - X . . . . X . . O + ; , 6 6 F                     ",
"                      . . . . . . . . . . . . . . . . . . + 7 j #.c 4 + . . . . . . . . . . X O # : 1 5 p 4                     ",
"                    w . . . . . . . . . . . . . . . . . . . . . X O O + # + @ X X . . . . . X O + : , 5 9 8 Z                   ",
"                    . . . . . . . . . . . . . . . . . . . . . . & 9 q 1 , ; # O X . . . . X X + # ; > 5 9 p 1 pX                ",
"                  w . . . . . . . . . . . . . . . . . . . . . . & d 9 5 1 : # O X . . . . X X O # ; > 5 8 0 9 k                 ",
"                  . . . . . . . . . . . . . . . . . . . . . . . * d 0 6 > : # O X X . . . . X O # ; > 5 8 9 a 1 d.              ",
"                = . . . . . . . . . . . . . . . . . . . . . . . * d 9 6 , ; # @ X X . . . . X O + ; > 5 9 9 a a 0               ",
"                . . . . . . . . . . . . . . . . . . . . . . . . * d 0 q , : # O X . . . . X X O + ; > 5 8 9 9 a 6 D             ",
"              = . . . . . . . . . . . . . . . . . . . . . . . . $ a 9 6 , : # + O . . . . . X O # ; > 5 8 9 a d k 7             ",
"            G . o o . . . . . . . . . . . . . . . . . . . . . . $ a 9 q , : # + X . . X . X X O + ; , q 9 9 6 5 6 k `.          ",
"            e . . . . . . . . . . . . . . . . . . . . . . . . . @ d 9 8 5 : - + X . . . . . X O # ; : : , d D `.                ",
"                  G e = . . . . . o . . . . . . . . . . . . . . @ d p 8 1 : # + X X . X . X . . X ; k H                         ",
"                            S w . . . . . . . . . . . . . . . . @ 0 0 6 5 : # + O X . . . . $ A                                 ",
"                                    G e $ . . . . . . . . . . . @ 0 0 8 5 > ; @ . . . w G                                       ",
"                                              A w . . . . . X . $ 0 0 8 > # # 3 S                                               ",
"                                                      G e o . . . 7 5 p S                                                       ",
"                                                                A d.                                                            ",
"                                                                                                                                "
};
