/* XPM */
static char *rsz_13wp87612681687274859[] = {
/* columns rows colors chars-per-pixel */
"64 64 78 1 ",
"  c #4E3577",
". c #4F367B",
"X c #4F387E",
"o c #52367B",
"O c #553A7D",
"+ c #583C7F",
"@ c #553781",
"# c #593782",
"$ c #563C82",
"% c #5A3D84",
"& c #5D3E89",
"* c #613E86",
"= c #613E8B",
"- c #633F91",
"; c #574086",
": c #5C4185",
"> c #5D428A",
", c #614287",
"< c #63438D",
"1 c #68468E",
"2 c #63488E",
"3 c #69498E",
"4 c #654591",
"5 c #694693",
"6 c #664993",
"7 c #6B4A95",
"8 c #67479A",
"9 c #6B4799",
"0 c #664999",
"q c #6E4C99",
"w c #704B96",
"e c #714E9A",
"r c #6C5195",
"t c #6E529B",
"y c #725495",
"u c #73529D",
"i c #78529F",
"p c #76599C",
"a c #795A9D",
"s c #6C4CA1",
"d c #6F52A4",
"f c #7655A2",
"g c #7956A3",
"h c #765AA4",
"j c #7C5AA5",
"k c #7D5CAA",
"l c #7F61A6",
"z c #7F63AB",
"x c #815DA9",
"c c #825FB1",
"v c #8264A7",
"b c #8262AB",
"n c #856BAC",
"m c #8869AF",
"M c #8363B4",
"N c #8866B2",
"B c #8D6BB5",
"V c #8F6EBA",
"C c #906CB4",
"Z c #906DB9",
"A c #8B70B5",
"S c #9071B5",
"D c #9374BC",
"F c #8E6EC3",
"G c #916FC4",
"H c #9675C3",
"J c #9A7AC4",
"K c #9979CE",
"L c #A889CF",
"P c #AA8BD1",
"I c #AB8AD9",
"U c #B08FDE",
"Y c #AD90D0",
"T c #B091D6",
"R c #B697DA",
"E c #AF8CE0",
"W c #B18EE0",
"Q c #C5ABEC",
/* pixels */
"O%*+&%$$$>:O::;:>$0&>$::O22 :rX;:$$O$O2;;+2rXXOX ;O;$$%%$>$;;$;;",
"+O+%%%&%$>>,$%,>>>0606;,++;+:::>;;:$%O%:;O2pOOXO+O;O$$<p>>;;X$>2",
"+:%%$O$%6$;:O%;%>6;:6;:%:++;;;::,,o%::::++X ;;;;;O2O;O:;t2;;;;;;",
"++*%$>%$%;%:::%;;::3;;>32+;:;::;;;r<O$:OX+;;;O;O+;:+:::>X>;$;;;;",
"+OOoo32O::::O%OOO++:+++:+;,+22::%%2,$::::+++X;;XO:;;;r:;2;>;;;;;",
"O+Otr.+Oo:::O%:::++++++:++:+:;::>>%::>+$O++ X;$$:22;::2:>>>;;;;;",
"+:O++O+:,o$$$oO+,,Opv++:;O:,:;:;>%,O:::O:+;+X;;;;;r;:;:2;66>>; ;",
":pro;O+:r+o%%O,%+++,+O,+++::::;;;%:;:::;:;OOOX@$;OX;;;:;>;>>>;O:",
"++O+ O:+++;:%O::++,+py +tOO%>;;>>;%;%::%%::$$;;X;>;;$;>2;>>&$$;>",
"+::+ O:+;ooO:O+++++O:yO+O%$%>&$;>:%%:%::,>Oz>$$;;OX;>>;>>0>&$&>;",
":+++++%+oo+OO+%O+O r:OO++:;:%$>$>>>%;:>%:;$:$>;$$OO;$;;0<-;$;>;$",
"+++;++O++o;;%$;%+:Onv:++O:$>>$&>$%><6>;>%::;$;$>;>;@$$>0>>>&>;>>",
"+r;;:%:o$$%%&@@$;O:+o::%;>>>&>$>>>.th&:%%::::O>Hr +;;;2;>>8;&;>$",
"2:::;O %>$>>$&$%+:+:::,:,>;;$>>&>>>$$>%%O:>%$;>o>nord;>;>>$>>>;$",
":>+>t%::>>%$&%>>;:++>+:%O<><6>>>>><&>;%:3rO2:<;$>A;+;>;;8;8;;;8$",
";>::;>%;;$$>>%>7+::>++%rz%<%>&$&-;&>;%%%:>:,>;>::o;:0$8&;$$>>8;$",
":3@&$&>>$%%%%5<%%*>6>$,>6;<f6&>><<>>::%<:%:<:<&&o;2;&>>$>>&0;$>>",
":,*%%&26>6::&yb1<<<>%>2<>676>%><&&%&><,<<<%><<%%l6;%>&>4d;>>$>>>",
";%+$$;;$;,%%<*#5V<&&q>%><>>><>&>&>%><<><&66><<ftb7&>44%&>;>$;;>>",
"::%#$%6%:,<>%%=*%<444>4&>&<>6446<><<><0&<%7<<rje$%<>$>&$>0>>>0>;",
"@@>%>%<,+<%<%<<404044>t<>444<4464<<<44*<<<<<<*%&%+,,,64&&&d>00;>",
"&%%&:%%%,%*&%<q7&46<<6>446<47&<<<47&==&*45<<><4%a3+<<<>76$>$>0>0",
"&&&<<<<<<%<71#<&4<4<>4>64>47547<&<44*&=*<55q=&46Lao::><<<>;0;>00",
"&&><:<7%*1<<<&>404<<4&4<44<645q444===0=4*4q=<&44%3,u<>>%&>>6>>;r",
"&@@06&<&0=*=<5<76>4>0<<:464<4<4444<*<7==&=qe47q<<44<t<>>$<6q6>74",
">%f<4<77<4*0<4<<<&>>>>>><<4><44<50=47&4=<774&*-&%4>>>&,>4f6>4dq4",
"*&57=<<5&<&7<44&6,6<&>&>%4<*<44<<55444<4&&&474&%Jf4&>>>6q<464q40",
"&&q5<4%<4=4<&&&06>Jz&>6>&4<0&44<<<<44<<74>444<<4q4>4<&4<>64><&04",
"<&8&&<1<4%<<4<4>6>O%<<>4<<&=<<44<<3<4<44<>6<64<54<<=<&<4t666464>",
"=&#&e<1%oi5%4>4><:<2>>46<>4<><<<4<<3o*<&&<>>4<404q<4<4<>q47<><<o",
"%$&&$&%$%%%%&&%4<4>>22>>&>044<44<<73a3,%<%25<<<><4q04>44<>&563%S",
"&$$$%%,%,:%<>>&<6<<<><>4444%6<&=55r3Yy+<3%%q4<7455%5q%fN&6&6<<,j",
"$>$<6%>>%%>&4>4&>4&>;;0>>@<x=4=4<&75o,,<1*=<=#<q%44<%<1<q4474<e%",
">4$>>>&4:4&&44&4>>&&&$>0@&44&&==&*=*3<,<*144&==4=&65N<<45q>>4<jf",
"44>>>><@%k>qh6&%<4>&>0$>$<<&=#*&&-<=715%ww==<7==7<<uTr<<,<44&7<0",
";>>>>>$&>%&6&>%$0$t4$0&>4%%0<j0=w4747475--=w74775<<,%4q4664674<<",
">>>>$0>>4&%&6%$>&&q<>>>>&>&<4=&*=55-==q<--www194%ft77<<4<559<4&>",
"44>0&00<>%440477q4qf4%>42;2,&&q%*-=5*45ew-*w--#46<<446&<70q7&464",
"20>>>><4>&470>4&0q0=6%::rz%>>&4<-1444==15w--1==44*&4<6=44680<0$&",
";;>s00<dq&$6-<>&qqgk7r+Qn.6><4@==w-57#*#155*71554><74&=46t&&*<6q",
">q6zds-s4&>$664&6qDxkh7hu+,<<<=%=w9w1Zw-*====4&=4<q=<&<eq447474<",
">&4HKzs<&>446>0$&6HIWf5$%%%%%%&xw*5-4u9441-=4q=77444=7*5f&4q4=&4",
"-<8<KFs84>6<444-0q-WEMgfq<7e7<%j-5-*<*<4<4=5*74==5=e&=75447f=w4-",
"$&88kFs8u4%&>>&&&f7cGck7e74w45<=*1-5q<4&g5=14===155==4574*xN=w15",
"d--4-80>4644447g=---9i--e744<<5711$<3745j<<&5%q7=*7&<1<<*=74=1=w",
"z8&8&&8>&&<<4=*x-==-5--747ew=15511Di,*<&474547=<1g4<<%1<=4-ww7--",
"-8&&kq&>%qq=<44==*4Zw=4=Nq&w1<75*7P7%75%<:q<<4*=*q<***<77=uf741w",
"&84%q0>d<jq&4<==w=4f&w94H==545*1<**<=111<<1%e44=44<*1,*<-=ew=<51",
"&888#7-&4=--111-77==4=e4%<541=51<<537%1157115<ef8717+*11*--74e97",
"-&&47==--=w-ww11*#=4-5&**7wx*=7=qi<<<<*5%**15<<5==1*11+w157==u47",
"&0&&=4979--e7*==1=5-5ie<7554=-5457,,5*%4111,71<<<,,1*==414759995",
"&&&84&--9=e9=<<*=5w47=55115544471,uD,<<<1%7<%,y,3<<**144=w5q8-55",
"&4<=47&--88-4<<1<1<441=7<3,<31477%aR,<77<17*37,%<35151=5we77==57",
"<<%5=558-qq-71<,<55441-771,11=5<1<,***=w=e4q<&<<7<4<ww79u7974=7=",
"%bj11=qq9--51++,*44xw-e7u111*1*75511w1w577f=7<==<<<57weweqwe74==",
"*5C**4=4-9e=*vS*1=4q41=4757ya1=8wiCD-w9779e74qq<<1q7qu7ugf7qqe4<",
"=1*,<1==8-94%wa+,1*745=485*bT%q=74eg4q77547=741=ww-ew7wiu7eqeqg7",
"w1**1144-897=1,1111<7=7=ww7#o541w5=57--79=7#He4=-1--wwieeewwxd7e",
"1*u7=774=7--4*11-57444515e44w157417e-998x57495571w-eiii-geeefwe<",
"*<uww5&955w5=1114www94w45844w45=Zb=e9s5=7Z4455<7e5wigiwiq=e94477",
"<54<7===444e74==44=54==we=7-4445ax=w75=-eJ7-575qeq7eewiewkgeg0*7",
"<e7uww74w7*4<414-775547=*=-=7q=w=e4<=w<81=7w557ewwcew=wxkejewq77",
"e457gf759g47577=575=7g555417f775e74-7477577%455www-1-xixggfewwuk",
"757q<77<5e75755-w455444=4=471<51*e17g=-44<=<45597w=5wxixgugfef4q"
};
