/* XPM */
static char *_95ccae2a86a4d68c72cfbe7be8c287f6b6ZWDv3PDuKVCEl[] = {
/* columns rows colors chars-per-pixel */
"64 64 209 2 ",
"   c None",
".  c #4C0000",
"X  c #470000",
"o  c #5C0100",
"O  c #580503",
"+  c #640201",
"@  c #6B0100",
"#  c #630B04",
"$  c #6C0A03",
"%  c #740000",
"&  c #7B0100",
"*  c #7E0B02",
"=  c #7C010F",
"-  c #661208",
";  c #7E1103",
":  c #7D1D0D",
">  c #600714",
",  c #661D1C",
"<  c #6F2917",
"1  c #830101",
"2  c #8B0101",
"3  c #840C01",
"4  c #8C0E09",
"5  c #930101",
"6  c #9C0101",
"7  c #950C00",
"8  c #9A0C00",
"9  c #920A0B",
"0  c #9C090A",
"q  c #900708",
"w  c #821405",
"e  c #8B1203",
"r  c #841C0B",
"t  c #931504",
"y  c #9B1301",
"u  c #9D1904",
"i  c #931C0C",
"p  c #991B08",
"a  c #870E10",
"s  c #891919",
"d  c #9A1313",
"f  c #A40202",
"g  c #AC0203",
"h  c #A40608",
"j  c #AA090A",
"k  c #A10A0A",
"l  c #B40202",
"z  c #BC0303",
"x  c #BC0708",
"c  c #B40C0C",
"v  c #BB0809",
"b  c #BA0F00",
"n  c #A41602",
"m  c #AB1402",
"M  c #A41B03",
"N  c #AC1D04",
"B  c #AA1C0C",
"V  c #B21D01",
"C  c #B91B02",
"Z  c #B71600",
"A  c #BC0F10",
"S  c #A71617",
"D  c #B41213",
"F  c #BC1213",
"G  c #BC1B1C",
"H  c #B21B1C",
"J  c #89210F",
"K  c #98240F",
"L  c #852516",
"P  c #962712",
"I  c #92321B",
"U  c #A2230D",
"Y  c #BB2201",
"T  c #B82407",
"R  c #A32413",
"E  c #A92C1C",
"W  c #AB361F",
"Q  c #BB361C",
"!  c #B1351F",
"~  c #822122",
"^  c #9E3221",
"/  c #B43922",
"(  c #C30304",
")  c #CB0203",
"_  c #C30708",
"`  c #CB0708",
"'  c #C50A0A",
"]  c #CB0A0B",
"[  c #D30304",
"{  c #DC0304",
"}  c #DC0708",
"|  c #D40B0C",
" . c #DB0A0B",
".. c #CC1400",
"X. c #C41D01",
"o. c #CA1A00",
"O. c #D41C00",
"+. c #DA1800",
"@. c #DD0F10",
"#. c #C71414",
"$. c #CB1313",
"%. c #CB1C1D",
"&. c #C41D1E",
"*. c #D71314",
"=. c #DC1314",
"-. c #DC1C1D",
";. c #E40304",
":. c #EB0304",
">. c #E20608",
",. c #E40B0C",
"<. c #EB0A0B",
"1. c #F30304",
"2. c #FF0304",
"3. c #F3090A",
"4. c #E81700",
"5. c #F51E00",
"6. c #E30F11",
"7. c #E31213",
"8. c #EE1314",
"9. c #E1191A",
"0. c #E8191B",
"q. c #F01112",
"w. c #C42301",
"e. c #CE2602",
"r. c #CD2904",
"t. c #C42B0A",
"y. c #C8290A",
"u. c #D52600",
"i. c #DA2600",
"p. c #D42A04",
"a. c #DC2A02",
"s. c #D42B08",
"d. c #DD2D0A",
"f. c #CA310E",
"g. c #DB330E",
"h. c #D0300E",
"j. c #C62C11",
"k. c #C82F11",
"l. c #D62C10",
"z. c #CA3418",
"x. c #D33B1D",
"c. c #DD3B19",
"v. c #DF3B17",
"b. c #E42C01",
"n. c #EB2E00",
"m. c #E22E09",
"M. c #F22F00",
"N. c #E43106",
"B. c #EC3104",
"V. c #E3320B",
"C. c #EB350A",
"Z. c #EB390E",
"A. c #F23101",
"S. c #FA3100",
"D. c #F4380B",
"F. c #E73A14",
"G. c #CA1F20",
"H. c #DC1F20",
"J. c #D31F20",
"K. c #E31F20",
"L. c #D42425",
"P. c #DA2324",
"I. c #CF3C20",
"U. c #884429",
"Y. c #854329",
"T. c #964328",
"R. c #8B4C33",
"E. c #855031",
"W. c #98583B",
"Q. c #AB4629",
"!. c #B04124",
"~. c #AD4B33",
"^. c #A15332",
"/. c #96623D",
"(. c #A5653F",
"). c #B8623C",
"_. c #DE421D",
"`. c #D7401E",
"'. c #E7411A",
"]. c #E9421B",
"[. c #DC4422",
"{. c #C8532F",
"}. c #D15C32",
"|. c #C8512E",
" X c #976643",
".X c #B8764A",
"XX c #A77D50",
"oX c #B96C43",
"OX c #CB6D40",
"+X c #C5774A",
"@X c #EC7445",
"#X c #AA8B5A",
"$X c #B48857",
"%X c #BD9B65",
"&X c #BEA168",
"*X c #C68756",
"=X c #D68A55",
"-X c #D09B68",
";X c #C5A269",
":X c #CDA268",
">X c #D3A96D",
",X c #DCAE70",
"<X c #C8B176",
"1X c #D4B073",
"2X c #D9C27E",
"3X c #DCCA87",
"4X c #E5D18A",
"5X c #EDD78C",
"6X c #F7D58A",
/* pixels */
"                                                                                                                                ",
"  2.1.1.<.1.1.:.;.;.:.:.:.:.1.<.<.:.;.:.:.1.2.1.1.3.1.2.,.                  ,.2.:.1.1.1.:.:.<.1.1.1.1.1.:.:.:.;.;.>.>.;.:.1.2.  ",
"  1.:.;.>.<.;.[ [ [ } { } ;.,.6.>.{ [ { :.:.:.;.:.<.6.:.                      :.;.:.:.:.;.{ }  .:.:.1.:.;.{ } ) | | [ [ [ ;.:.  ",
"  2.;.{ :.:. .) [ [ { } ;.<.,.>.{ { [ } :.:.<.,.:.;.3.,.                      >.:.;.;.:.:.;.{ [  .:.:.:.;.{ [ [ ` ) { ) [ { :.  ",
"  1.{ ;.1.;.[ ) ) ) } ,.H.9.>.>.} [ [ ;.:.<.8.<.:.>.1.                         .:.;.;.:.:.{ [ [ [ ;.:.:.;. .G.] ( ) [ [ ) ) ;.  ",
"  1.{ :.:.{ ) ) ) [ @.P.L.-.>.{ [ ) } :.q.8.8.<.>.;.,.                          1.{ { ;.:.:.{ ) [ [ { :.,.L.G.] ) ( ) { [ ) {   ",
"  ;.;.:.{ [ ) ( _ } P.L.9.7.{ [ ) ) <.<.8.8.<.:.[ :.                            ;.{ { { :.1.;.) ) ) {  .-.J.=.[ ) ( ( ) { [ )   ",
"  ;.:.;.[ ) ( z } H.L.P.P.*.[ ) ) >.<.8.8.<.>.[ { }                             } 1.[ [ { :.:.[ ( ( ) %.l.K.H.} ) ( ( ( ( [ {   ",
"  :.:.{ ) ( l ) -.L.H.P.*.[ ) ` | <.8.8.q.<.{ ) [                                 >.{ [ [ ;.:.;.) ( G G %.H.:.{ [ ( ( ( z ( {   ",
"  1.;.[ ( z v -.P.P.P.*.[ ` ` ) <.q.8.q.<.[ ( [ ]                                 @.:.[ ) [ :.:. .G H G &.[ { ;.[ ) z ( ( z )   ",
"  1.[ ) z l | -.-.=.*.[ ` ` ` >.q.8.8.<.[ z ( _                                     } { ) ) { ;.,.*.A D z ( ) { { [ ( z z z z   ",
"  ;.) z l | 7.,.>.{ ` ` _ ` 6.q.8.8.<.| l z x                                         :.) ( (  .>.;.) l l z ( ` } { [ ( z z (   ",
"  { z l ] =.6.,. .] _ _ ) >.q.0.q.7.[ l g z                                           | ;.( v ' { { ;.) l g l ( )  .{ ) ( z (   ",
"  ( g _ *.@. . .` x z `  .8.8.8.7.) g f z                                               ] [ v l ( { ;.{ ) l l l z ] [ { [ ( (   ",
"  z _  .@. .| ` x x _  .8.8.8.@.v h 6 g                                                   F ( l l ( [ ;.{ ( g g l z _ [ { [ )   ",
"  _ | | | | ' x x ( } 8.8.7.| l 6 5 h                                                       D l f l ( [ ;.{ ( g g l l z ) [ {   ",
"   .| ] #.v v x z } <.,.| _ 6 q 0 q                                                             h g g ( ) { { ) l h j l l ( [   ",
"  | ] _ x A x _ } ;.[ _ g 5 q 4 a                                                                 9 6 g z ) [ { | v f f f l (   ",
"  [ _ x z x ' } } ) l f 6 9 s                                                                         q g l ( | | [ ( g f 6 g   ",
"  _ z z _ [ { ) l f f 9 L                                                                               s s S D ) ) [ ) z g g   ",
"  z z ( [ [ ( g l 6 a                                                                                       ~ 9 g x ) [ ) ) x   ",
"  l z ( z l l h d                                                                                             2 & 2 f x ) ` [   ",
"  l l l g j d                                                                                                 q & % & 2 h l )   ",
"  l g f f                                                                                                     c f & % & 1 6 l   ",
"  g 5 6 f                                                                                                     #.[ g 2 & 1 2 6   ",
"  g 6 f (                                                                                                       { [ z 6 5 2 5   ",
"  g f z :.                                                                                                      | { { ( g f l   ",
"  l z { 3.                                                                                                      %.,.;.{ ( z )   ",
"  ( ) { 3.@.                                                                                                      | { ;.[ ( (   ",
"  ) ) { ;.}                                                                                                       ] ;.;.;.) (   ",
"  ) ) [ { 1.                                                                                                        } ;.;.;.[   ",
"  [ ) {  .;.|                                                                                                       | { ;.:.:.  ",
"  ) ) [ { |  .                                                                                                      ` { ;.;.1.  ",
"  [ ) [ { { >.                                                                                                      ] ;.:.;.1.  ",
"  ) ( ) [ { { |                                                                                                     #.;.;.:.1.  ",
"  ) ( ) ) [ [ )                                                                                                     #.:.;.;.1.  ",
"  ) ) ) ( ) ( x                                                                                                     ] ;.;.;.1.  ",
"  ) ) ) z ( ( z                                   d.d.d.b.V.`.x.[.F.b.m.b.m.m.                                      #.;.;.;.1.  ",
"  ) [ ) l ( z _                       s.u.u.i.b.n.M.M.M.A.'.F.'.].A.n.M.M.S.S.S.S.n.b.m.d.                          #.;.{ ;.1.  ",
"  ) [ ) g z _ G                 d.u.n.b.i.u.i.i.i.i.b.V.v._.].'.n.n.n.B.n.n.n.b.n.b.b.M.M.S.n.m.                    ) { { >.1.  ",
"  ) [ [ g l ( A               a.b.i.u.i.u.u.u.u.i.b.b.b.V.Z.C.S.M.B.A.A.B.n.n.n.n.n.n.n.n.n.n.S.F.                  $.{ [ { 1.  ",
"  [ { [ g g ' z S             m.m.i.i.i.u.i.i.a.b.b.n.C.M.n.n.n.n.A.A.C.A.A.S.B.B.n.n.b.b.n.n.D.z.                  [ { [ { 1.  ",
"  ) { [ g j ( z S           W l [ b.a.b.i.b.b.b.b.b.N.b.b.n.n.n.n.B.n.n.C.B.n.n.b.n.n.B.B.b.g.z 6                   | { [ { :.  ",
"  [ { { j f ( ( j       s.d.[ +XoXg T X.O.i.b.b.C.C.n.n.M.M.n.M.M.M.M.A.A.A.A.A.D.B.a.( l U 5 ).{.5.m.d.            | [ ) [ :.  ",
"  [ { { l f ( z h y.a.b.b.m.) =X=Xf p i P 7 y N l z r.a.a.a.a.a.a.a.a.i.i.u.w.C 5 2 % E./.1 6 OX}.4.B.S.S.d.        [ [ ) ) :.  ",
"  [ { { g f z l C b.b.i.i.i.s.) ) f.g *X:X1 J &  XY.@ $ $ @ + @ + + + < # + o - #XY.% $X>Xf t.) +.B.n.n.A.S.V.      } [ ) [ ;.  ",
"  { ;.;.j h z g w.b.i.i.i.i.i.l.h.e.X.Q / f K 5 1X$X& J % #X<X@ : : @ 2X#X% r r ;XT.6 g z r.s.N.B.n.n.n.n.n.b.      | [ ) [ ;.  ",
"  { { ;.l k z l n N.b.b.b.i.a.p.i.u.p.o...w.C V f 5 i e & Y./.& w * & W.T.2 t 8 6 b e.a.a.b.B.C.n.b.b.n.A.B.T       | ;.[ [ ;.  ",
"  { { ;.l 6 v l n l ..a.N.a.s.a.a.a.b.b.n.n.b.b.b.a.p.p.p...) r.e.r.s.[ O.a.a.b.C.B.B.n.n.n.b.b.N.n.n.n.a.l 6         | ;.{ {   ",
"  { ;.;.l g _ D g {./ m ! k.p.N.b.n.b.b.b.b.b.b.b.n.n.B.B.B.A.A.Z._.F.B.B.B.A.B.n.n.n.B.n.M.M.b.g.y.N u 5 ~.Q.          [ { :.  ",
"  1.:.1.l 0     l 6X,Xf ^ i 7 6 m Y w.e.i.b.B.B.B.B.A.S.S.A.S.Z._.'.D.A.S.A.A.S.S.n.b.V.s.C M 3 @ % w 7 f -X*X                  ",
"                ( @X).B E R 8 ^.J 1 * * w 2 6 M V Y w.w.y.f.t.Q Q z.t.w.t.t.Y T M e w o o - @ : ;X(.2 R E |.|.                  ",
"                  ) l.x.z.g Q.5X.X5 K e & I U.% $ + + O o X > , , , O O . X o o + + @ #X X& 1 I 5X*Xf / x.x.                    ",
"                      x.a.O.y.+XW 6 y K 1 3X4X& r 3 ; & R.<XR.= : * : + %X3X% * ; * & 4X%X& K 6 g X.x.z.x.                      ",
"                          s.o.l l C Z T g oX.X2 e 3 w %  X3XW.& ; 3 : % %X3X1 3 3 e 5 K N Z C w.k.z.                            ",
"                                      m B 6 6 u 8 y 7 t 5 2 q 9 7 7 8 i 5 5 8 y y n M f m                                       ",
"                                                                                                                                ",
"                                                                                                                                ",
"                                                                                                                                ",
"                                                                                                                                ",
"                                                                                                                                ",
"                                                                                                                                ",
"                                                                                                                                ",
"                                                                                                                                "
};
