/* XPM */
static char *rsz_11taylor_swift_left_removebg_preview1687273069[] = {
/* columns rows colors chars-per-pixel */
"64 64 250 2 ",
"   c None",
".  c #2E1014",
"X  c #3A2F35",
"o  c #231118",
"O  c #553C2B",
"+  c #573A3C",
"@  c #4B332F",
"#  c #564437",
"$  c #524234",
"%  c #66483B",
"&  c #6E533E",
"*  c #4F3852",
"=  c #5F3769",
"-  c #5A4A47",
";  c #5D524A",
":  c #5C4057",
">  c #65534C",
",  c #6A5548",
"<  c #765949",
"1  c #6B5B53",
"2  c #675755",
"3  c #725C52",
"4  c #755754",
"5  c #664D46",
"6  c #7C6249",
"7  c #6D605A",
"8  c #75645B",
"9  c #796658",
"0  c #72715C",
"q  c #675C68",
"w  c #776A65",
"e  c #74666B",
"r  c #55556F",
"t  c #B5274F",
"y  c #8B5D58",
"u  c #8A6B5D",
"i  c #876857",
"p  c #8D6A51",
"a  c #846A65",
"s  c #897467",
"d  c #977668",
"f  c #897A74",
"g  c #967875",
"h  c #976D6E",
"j  c #A47A69",
"k  c #A67675",
"l  c #B67D7B",
"z  c #AC6F7F",
"x  c #A25E66",
"c  c #C96A79",
"v  c #988678",
"b  c #8A8078",
"n  c #A58678",
"m  c #B78579",
"M  c #A8937B",
"N  c #BB947B",
"B  c #A5846A",
"V  c #C58A7D",
"C  c #92768A",
"Z  c #B3798C",
"A  c #936B98",
"S  c #D67990",
"D  c #EE6C90",
"F  c #988A86",
"G  c #9B8C8F",
"H  c #A58D84",
"J  c #BA8786",
"K  c #A49385",
"L  c #AB9A8C",
"P  c #AA9688",
"I  c #B4958C",
"U  c #B89986",
"Y  c #AD9D92",
"T  c #A69895",
"R  c #B79995",
"E  c #BB8992",
"W  c #B3A295",
"Q  c #BBA495",
"!  c #B3A59A",
"~  c #BBAB9D",
"^  c #B8A89A",
"/  c #B2A595",
"(  c #978CB6",
")  c #9092B7",
"_  c #AF9CA9",
"`  c #BCADA2",
"'  c #B6A8A3",
"]  c #BCB1A4",
"[  c #BBB1A7",
"{  c #AFA6B1",
"}  c #C58A85",
"|  c #C6998B",
" . c #D5998E",
".. c #CD9C94",
"X. c #C89A95",
"o. c #D69B94",
"O. c #CE8991",
"+. c #E98F9E",
"@. c #C8A68A",
"#. c #C7A89A",
"$. c #D2AB9B",
"%. c #D8A699",
"&. c #CBB39D",
"*. c #D5B49D",
"=. c #E5A99D",
"-. c #E3B09F",
";. c #CD92AD",
":. c #F193AA",
">. c #C8ACA4",
",. c #DCACA3",
"<. c #D7A9A6",
"1. c #C3B2A4",
"2. c #CBB3A2",
"3. c #C5B6AB",
"4. c #C6B9AC",
"5. c #CBBBAD",
"6. c #CBBAA7",
"7. c #D3B4A4",
"8. c #D3BBAC",
"9. c #D9BBAC",
"0. c #D8B6A7",
"q. c #C6BCB4",
"w. c #CDBDB1",
"e. c #D3BEB2",
"r. c #DABDB3",
"t. c #D8B5B8",
"y. c #D9ACB1",
"u. c #E5AEA5",
"i. c #E4B3A4",
"p. c #E3B4AB",
"a. c #EAB6AB",
"s. c #ECBCAD",
"d. c #E9B8A7",
"f. c #F2B5AB",
"g. c #F2BAAC",
"h. c #F8B8AF",
"j. c #E4A6B8",
"k. c #E5BAB1",
"l. c #ECBBB3",
"z. c #E8B6B4",
"x. c #F2BEB2",
"c. c #F5B3B4",
"v. c #F4A9AB",
"b. c #DCC3AE",
"n. c #D2C0AC",
"m. c #CCC2B6",
"M. c #CEC6BA",
"N. c #D4C3B5",
"B. c #DBC4B4",
"V. c #D4C5B9",
"C. c #D5CABD",
"Z. c #DCCBBC",
"A. c #DAC8B7",
"S. c #E7C1AD",
"D. c #E2C3B3",
"F. c #E4CCBB",
"G. c #ECCDBD",
"H. c #E7C6B7",
"J. c #F3C3B3",
"K. c #F4C4BA",
"L. c #F6CABC",
"P. c #FBCABD",
"I. c #F9C6B5",
"U. c #E7D1BB",
"Y. c #F2C3AF",
"T. c #999BCA",
"R. c #928DC7",
"E. c #A7A8D8",
"W. c #ADB2D8",
"Q. c #B2B5DC",
"!. c #B6BADD",
"~. c #B8B7D7",
"^. c #AFAED0",
"/. c #B1AEE1",
"(. c #B2B4E4",
"). c #BABEE4",
"_. c #BCBDEA",
"`. c #B5B9E6",
"'. c #BDBCF1",
"]. c #AEAEE2",
"[. c #A0A0CC",
"{. c #C2B9CC",
"}. c #C5BCD7",
"|. c #D1B8C5",
" X c #F4B4C2",
".X c #C4BBE8",
"XX c #C1BDF1",
"oX c #BEC2EC",
"OX c #BEC1E3",
"+X c #BFC2F0",
"@X c #CAC5C2",
"#X c #D4CBC3",
"$X c #DACCC2",
"%X c #D5C8C8",
"&X c #DAD1C8",
"*X c #C8C3DB",
"=X c #D7C6DA",
"-X c #DCD9D5",
";X c #EACAC5",
":X c #F5CAC3",
">X c #FBCCC3",
",X c #F7C9C6",
"<X c #E7D6C7",
"1X c #F6D3C4",
"2X c #FBD2C5",
"3X c #F5D4CC",
"4X c #FBD4CB",
"5X c #FDDACC",
"6X c #F4DAC7",
"7X c #FCDBD3",
"8X c #FBD8D5",
"9X c #EFD4D2",
"0X c #FDE2D5",
"qX c #FFE0CC",
"wX c #C2C1E4",
"eX c #C2C4EA",
"rX c #C5CAEE",
"tX c #CBCCED",
"yX c #CAC7E6",
"uX c #D4CCE6",
"iX c #CCD1EB",
"pX c #D6D4EC",
"aX c #C3C4F3",
"sX c #CBC5F5",
"dX c #C6CBF2",
"fX c #CACCF3",
"gX c #CBCCFA",
"hX c #C6C9F8",
"jX c #D5CDF5",
"kX c #CDD2F4",
"lX c #CED2FA",
"zX c #CBDBFB",
"xX c #D2D4F5",
"cX c #D5DAF5",
"vX c #DADCF6",
"bX c #D2D5FB",
"nX c #D5DAFD",
"mX c #DADDFD",
"MX c #D8D7F7",
"NX c #E7D4E3",
"BX c #E1D6EB",
"VX c #DDE2FE",
"CX c #D8E8FE",
"ZX c #FFE5E4",
"AX c #E2E5FD",
"SX c #E4EBFE",
"DX c #EAEBFE",
"FX c #E5E4F8",
"GX c #EBF4FF",
"HX c #F4F7FF",
/* pixels */
"                                                                                                                                ",
"                                                                                                                                ",
"                                                                                                                                ",
"                                                                                                                                ",
"                                                                                                                                ",
"                                                                    ] m.M.m.]                                                   ",
"                                                            v T ' m.&X6X<X-Xm.[ !                                               ",
"                                                    L ' T f f F ^ m.<X6X6X6X<XC.-Xq.                                            ",
"                                                M L ! I M R H f v / 6.F.<X6X<XV.A.Z.4.L                                         ",
"                                          ^ ~ Y T Y P P F K >.Z.Y L ^ n.A.N.N.A.N.] [ m.!                                       ",
"                                        ^ 1.#.Q ! ~ Y W ! I ` ~ <X6.L K ^ N.;X<Xn.] ^ ~ ] ! F                                   ",
"                                    m.w.8.&.&.A.w.1.^ W w.e.5.` ] Z.Z.1.K K 1.$X&XV.~ / / ' T K                                 ",
"                                #X%X#Xm.1.] #X-X&X] ` W 5.V.V.<X6.6.w.N.1.W P K ] C.<Xn.M K Y T F                               ",
"                              #X-X-X! ^ 1.[ %X@XN.~ w.~ >.N.1.1.w.5.4.5.N.N.1.^ / K L 3.] K b v F w                             ",
"                              -X&Xm.! 4.4.` C.#Xm.` 5.~ W V.w.1.~ 3.3.1.5.$XC.6.4./ v f v K v s b b w                           ",
"                            -X-X#X[ ' ` ` 1.A.A.C.` ` 5.W 3.V.C.N.4.~ ` 5.N.C.V.n.M.3.F 2 > 9 i 0 w e                           ",
"                          C.&XM.#X[ ~ 6.` 4.C.C.A.n.1.5.2.6.1.e.Z.6.Z.] Y 1.Z.V.N.5.m.! 0 # $ 0 8 7 8                           ",
"                          #XC.C.$X4.6.6.1.w.$XZ.B.N.5.B.e.B.8.5.Z.<XM.&X! ! 1.5.C.4.' ` K s , # 8 8 2 1                         ",
"                          &Xm.C.$Xn.6.n.5.e.Z.Z.A.A.B.A.B.;XV.5.4.C.&X<X&X^ ! ~ &.n.~ P P F 8 ; 5 3 > 2                         ",
"                        3.N.m.N.Z.5.n.b.8.N.A.U.Z.B.B.B.A.;XZ.N.C.[ C.N.&XM.[ [ M P ~ K v v 0 7 $ , 2 >                         ",
"                        6.#.5.N.A.&.&.b.D.8.b.U.F.b.b.b.F.U.Z.B.C.4.4.V.m.<X[ ! / B M L b i s , O $ # -                         ",
"                        #.M 7.w.B.*.&.b.D.8.9.F.F.b.A.F.1X;XF.F.~ 1.~ 4.5.N.C.! / ^ v B M 6 9 & s & # @                         ",
"                        U B #.6.B.0.*.9.D.9.9.b.A.b.D.b.F.F.U.Z.1.#.I H #.W N.m.v W M v B p & & 6.s , ;                         ",
"                        n B U >.9.9.7.*.k.B.9.7.b.B.D.7.b.F.1XF.8.#.n n U Q P N.m.0 L B p & 6 M / 6 & 0                         ",
"                        M p m | >.7.0.7.>.7.2.@.#.8.r.8.#.&.Z.;XH.#.n u B U U N A.~ 0 v i p U v 6 < 7 ;                         ",
"                        u y d k | *.S.-.X.I X.#.#.,.<.#.@.N @.b.D.:X$.s < i n U U D.M 9 B ` v b O , b f                         ",
"                        d 9 < h j | d.-...O.Z Z E y.z. Xz.%.@.*.b.D.H.9.n < < s B B *.j v v v F , b [ G                         ",
"                        h 4 . + i @.Y.Y.o.S y @ : A A ;.j.p.,.<.*.k.1X:X>.n i < p d m V B 0 Y L M L b w                         ",
"                          + o . * I 3X:Xz.<.h * X = = A E  Xl.z.$.S.:XH.#.I n u < % j x.N p n j 7 8 2 ;                         ",
"                            2 + q t.ZX8X,X;X' s e C G ;. X9X5X5XS.0.k.2Xt.m h d i #.f.=.Y.} p & $ 2 b q                         ",
"                            g C _ 3X8X:X9X8XD.#.&.e.;X8XZX4X3X3X2Xk.p.H.d.| m m *.f. .u.o.=.% O - 7 -                           ",
"                              >.>X7X5X2X4X4X:X2XL.2X,X3X9XZXZX9X2XH.,.0.J.i.%.o.=.=.%.5Xc.o.< X - w q                           ",
"                              r.ZX4X4X4X7X7X6X4X4X3X8X0XZXZX8X3X:XK.-. .-.u.%.d.a.%.,.i.c.,.d @ ; 7 ,                           ",
"                              7X8X3X3X4X5X0X4X4X4X3X8X8X8X8X9XG.l.s.-.%.=.-.u.I.p.a.>Xl.c.J M 9 1 1 >                           ",
"                              5X1X:X>X>X2X2X2X5X4X,X,X,X:X:XI.l.s.a.d.=.=.-.d.I.a.>X8X:X,.d #.b 9 9 5                           ",
"                              z.=.=.v.f.K.L.>X2X>X,XK.l.l.c.g.f.g.a.a.i.-.d.i.J.:X>X:X,XX.4 g g < 7 1                           ",
"                              a. .}  .=.s.>XP.P.,Xx.x.c.f.f.f.f.d.i.d.d.d.S.s.I.4X:X4Xp.4 4 g > < >                             ",
"                              g.8.t.H.K.1X2XL.P.>Xx.x.c.g.f.f.g.d.s.l.a.k.d.d.I.:X8X<.% + 3 8 4 # 3                             ",
"                                ,X X8X8X5X5XP.2X>XK.I.J.g.g.g.c.g.J.K.z.z.,...%.H.#.h @ , + # a O                               ",
"                                :.+.:.c.4X0X1XJ.,XI.I.I.J.J.J.J.g.J.l.z.l.u.m m I k h # > $ - 4 9                               ",
"                                c t Z S S ;.+.%.I.I.I.I.J.I.x.J.g.s.l.z.j.#.| 7.R X.s 5 3 5 > 1                                 ",
"                                  c G |.j.S c =.Y.Y.J.J.Y.Y.J.x.g.l.a.y.<.#...,.<.I 4 i s 1 > w                                 ",
"                                   X+.:.:.:.v.H.S.S.I.I.I.Y.J.g.a.z.l.<.....$.*.0.R a v a w 8 f                                 ",
"                                  :.D D +.c.,X1XY.Y.Y.Y.Y.Y.s.s.p.p.y.%.J ..p.p.7.R d g , 8 w g                                 ",
"                                    D O.>.B.J.I.I.Y.S.S.x.g.a.,.p.<.X.} J <.l.k.#.d u g , > w F                                 ",
"                                    4Xa.:X7XqXU.2XK.J.s.s.z.p.,.X.E m J ..p.t.<.R g C ' _ T { { {.                              ",
"                                    ZX>X5X4X6X<XK.J.l.p.,.%.o.O.l l J  .u.a.0.>.{ { {.vXMXVXmXxX~.                              ",
"                                    ZX2X<X>X:X>Xd.p.u.$.} J k k l E  .%.i.y.t.;XyX~.eXnXgXzXzXCX~.                              ",
"                                      2X-.=.c.u...Z Z Z x x j E O. .o.%.k.%XuXjXyX~.eXnXMXbXmXVXFXVXVXmXnXbXfXtX                ",
"                                        j.%.E f a 4 y y m c V o.| ,.t. X|.|.}.pXyX!.eXnXnXbXmXmXAXvXxXlXbXmXAXmXnX              ",
"                                              G q o 4 J l V  .V 3.%X.X}..X.XyXpXxX.XeXkXbXxXnXmXAXmXkXfXbXbXfXdXmXcX            ",
"                                              _ E.r 1 C m } J <.=XuXsXXXXXsXfXtXMXyXeXbXmXnXcXVXVXnXxXnXVXbXoXoXdXzX            ",
"                                              { (.R.A G g J R =XkXxXtXsXjXfXsXjXMXtXfXnXSXVXVXVXAXnXkXlXbXgXoXhXdXVXmX          ",
"                                              ( T.R.T.( G T {.fXdXxXvXFXvXpXyXsXxXxXkXxXVXVXVXVXAXnXkXlXgXoX`._.+XdXkX          ",
"                              kXrX!.!.~.^.W.dXmX].].R.) ~.}..XaXtXMXvXFXSXmXiXfXtXxXbXkXVXVXVXVXVXbXzXmXlXaX+X+XhXhXlX          ",
"                        FXGXVXSXCXSXSXSXGXCXVXzX'.W.T.iXsXXXsX.XiXcXMXbXAXDXAXcXtXmXmXkXnXCXVXVXVXxXbXlX+X`.`.`.+XgXkXtX        ",
"                      DXSXAXmXvXVXCXcXtXkXlXsX'.'._..XmXmXeXaXhXdXmXnXfXiXMXAXSXbXnXVXnXnXVXVXFXVXkXmXlX).).E.(.'.hXlXlXxX      ",
"                      CXVXnXnXVXVXmXSXmX(.(.'./.E.(.wXMXMXeXeXaXQ.Q.eXnXbXeXeXxXnXMXmXlXnXSXVXcXnXmXlXzXlXhX).(.(.oXlXOXCXnX    ",
"                      nXlXmXbXrXlXdXnXbX(.E.].E.).eXfXVXVXxXnXmXmXbX/.E._.xXdXeXfXxXbXrXrXnXnXfXhXzXoXkXlXhXzX`.W.oXzXfXkXDX    ",
"                    xXVXlXVXnXVXlXbXlXzXCXgXaXgXbXMXxXnXxXfXdXlXsXgXmXbX`.'.fX_.fXbXVXMXtXxXdX(.`.rX!.`.OXW.tXQ.W.oXrXzX).VX    ",
"                    xXbXdXfXdXnXlXzXrXtXVXnXsXbXMXgXgXsX'.'._.(.oXE.T.E.aXhXaXbXlXlXnXeX^.*X}.~.~.}.}.~.yXyXvXyXdXbXVXVXzXGXFX  ",
"                  SXxXVXCXVXVXSXSXCXVXmXkXMXMXxXXX.X`./._.gXfXfX`.E.].].E.'.nXdXOXOXMX).{ ^..X*X=XpXvXpXFXDXDXFXkXlXmXVXVXGXGXHX",
"                HXHXbXmXlXgXbXnXdXnXVXxXrXfXfX.X(././.E.(.bXVXAXVXCXzX].E.oXlXoX!.yXFXFX}.=XNXNXFXFXFXFXVXFXvXkXiXOXW.fXrXrXSXyX",
"                AXnXsXgXaX'.E.) E.nXmXlXVXmXsXsXeX.XaX(._.nXcXcXkX) T.`.+XOXrXkXSXcXVXpX*XNXNX=XpXFXFXGXVXCXSXGXGXSXVXaX+XlXhXnX"
};
