/* XPM */
static char *rsz_taylor_swift_right_5_removebg_preview1687273254[] = {
/* columns rows colors chars-per-pixel */
"64 64 253 2 ",
"   c None",
".  c #2C1011",
"X  c #3A2F35",
"o  c #1E0F15",
"O  c #543C2A",
"+  c #56393C",
"@  c #4A332F",
"#  c #594539",
"$  c #514135",
"%  c #66483B",
"&  c #6F513D",
"*  c #4F3950",
"=  c #613769",
"-  c #594944",
";  c #5E4058",
":  c #64534B",
">  c #6C554B",
",  c #695447",
"<  c #735A4C",
"1  c #775946",
"2  c #6C5B53",
"3  c #685955",
"4  c #735D53",
"5  c #765A55",
"6  c #694D4D",
"7  c #75635A",
"8  c #7B655B",
"9  c #776455",
"0  c #7B6750",
"q  c #6C5D6D",
"w  c #7B6B64",
"e  c #766965",
"r  c #796E6A",
"t  c #55556F",
"y  c #B7244E",
"u  c #8E595D",
"i  c #856958",
"p  c #906B53",
"a  c #A5755E",
"s  c #846B65",
"d  c #887466",
"f  c #967767",
"g  c #8B7C73",
"h  c #897A78",
"j  c #967A75",
"k  c #906D6F",
"l  c #A67777",
"z  c #B67D7A",
"x  c #A87472",
"c  c #C7687B",
"v  c #988777",
"b  c #908072",
"n  c #A7826A",
"m  c #A48878",
"M  c #B7857B",
"N  c #A8937B",
"B  c #B8957C",
"V  c #C58A7D",
"C  c #93788A",
"Z  c #B57A8D",
"A  c #946B99",
"S  c #D87D93",
"D  c #C97489",
"F  c #F56591",
"G  c #EB7BA2",
"H  c #988A83",
"J  c #9E9287",
"K  c #9D9095",
"L  c #BA8786",
"P  c #A39385",
"I  c #AA9789",
"U  c #B79988",
"Y  c #A99A93",
"T  c #B29D92",
"R  c #B89795",
"E  c #AA8C8A",
"W  c #ADA298",
"Q  c #B3A395",
"!  c #BBA394",
"~  c #B4A49A",
"^  c #BCAC9D",
"/  c #B7A79A",
"(  c #B1A28D",
")  c #928FB5",
"_  c #A7A3A6",
"`  c #BDADA2",
"'  c #B5A8A3",
"]  c #BBB1A4",
"[  c #BDB2AA",
"{  c #A7A1B7",
"}  c #B9B7B4",
"|  c #B5ABB6",
" . c #A898A2",
".. c #C58A86",
"X. c #C5978A",
"o. c #CC9C94",
"O. c #CA9C99",
"+. c #C89794",
"@. c #D59A94",
"#. c #D49191",
"$. c #E8949D",
"%. c #C8A89A",
"&. c #D5A49C",
"*. c #D8A798",
"=. c #C7B39E",
"-. c #D5B39C",
";. c #CDA48B",
":. c #E4AA9D",
">. c #CC90B0",
",. c #F397AF",
"<. c #C7AAA4",
"1. c #DCACA4",
"2. c #D6AAA6",
"3. c #C3B2A4",
"4. c #CBB4A4",
"5. c #C4B6AB",
"6. c #C9B6AC",
"7. c #C5B9AC",
"8. c #CCBBAC",
"9. c #CDBEA7",
"0. c #D5B5A4",
"q. c #D4BBAC",
"w. c #DAB7A8",
"e. c #CCBDB3",
"r. c #C6B9B5",
"t. c #D7BBB3",
"y. c #DAADB2",
"u. c #E4AEA6",
"i. c #F3ADA7",
"p. c #E4B2A4",
"a. c #EBB4A5",
"s. c #E5B5AB",
"d. c #EBB5AB",
"f. c #ECBCAD",
"g. c #E6BAAB",
"h. c #F2B6AA",
"j. c #F2BBAD",
"k. c #F0B6A7",
"l. c #E4A5B8",
"z. c #E4B5B1",
"x. c #E4BBB1",
"c. c #EBBBB3",
"v. c #EDB7B6",
"b. c #F2BEB3",
"n. c #FBBAB9",
"m. c #F4ABB2",
"M. c #D9C2AE",
"N. c #CDC2B5",
"B. c #CCC4BA",
"V. c #D3C3B5",
"C. c #DBC4B4",
"Z. c #D4C6B9",
"A. c #DCCBBD",
"S. c #D9C8B8",
"D. c #CDC0AF",
"F. c #E5C1AD",
"G. c #E3C4B4",
"H. c #E3CCBB",
"J. c #E7C7B7",
"K. c #F3C3B3",
"L. c #F9C4B4",
"P. c #F5C4BA",
"I. c #F5C9BB",
"U. c #FBCABE",
"Y. c #F6C8B7",
"T. c #EDD0BB",
"R. c #989BC8",
"E. c #928DC7",
"W. c #9DA5C3",
"Q. c #A9A9D9",
"!. c #AEB3D8",
"~. c #B1B4DC",
"^. c #B8B7D9",
"/. c #AEAECB",
"(. c #ACACE1",
"). c #B3B5E4",
"_. c #BBBDE5",
"`. c #BBBDEB",
"'. c #B6B9E5",
"]. c #BDBCF1",
"[. c #B0AFE1",
"{. c #A398D4",
"}. c #C7B8CB",
"|. c #D5BAC4",
" X c #C5BCD7",
".X c #ECB6C1",
"XX c #C3BCE8",
"oX c #C1BEF1",
"OX c #BEC2ED",
"+X c #BDC1E5",
"@X c #BEC0F0",
"#X c #CAC7C5",
"$X c #D5CBC2",
"%X c #DACCC3",
"&X c #D6C8C6",
"*X c #C7C1DD",
"=X c #D7C7D8",
"-X c #D9D5CD",
";X c #EECBC4",
":X c #E9C5C5",
">X c #F4CCC3",
",X c #FBCCC3",
"<X c #FCCECC",
"1X c #F5C8C4",
"2X c #E7D6C8",
"3X c #F6D4C5",
"4X c #FBD2C5",
"5X c #F5D3CC",
"6X c #FBD3CA",
"7X c #FDD9CC",
"8X c #F4DAC9",
"9X c #E6D9D3",
"0X c #FCD5D3",
"qX c #FDDCD3",
"wX c #FDDCDB",
"eX c #F2D2D0",
"rX c #FFCFD1",
"tX c #FCE3D7",
"yX c #FFE2CE",
"uX c #C3C4EB",
"iX c #C5CAED",
"pX c #CACAED",
"aX c #C7C6E5",
"sX c #D5CBE5",
"dX c #CDD2EB",
"fX c #D7D5ED",
"gX c #C4C5F4",
"hX c #C6CAF2",
"jX c #CBCDF3",
"kX c #CCCDFA",
"lX c #C8C7F7",
"zX c #CDD2F3",
"xX c #CED2FB",
"cX c #CCDAFB",
"vX c #D2D3F5",
"bX c #D5DAF5",
"nX c #DCDDF6",
"mX c #D2D5FC",
"MX c #D5DAFD",
"NX c #D9DDFE",
"BX c #D6CFF7",
"VX c #E6D4E3",
"CX c #EBD9E8",
"ZX c #DCE2FE",
"AX c #DCE7FA",
"SX c #CFE1FF",
"DX c #FEE4E3",
"FX c #E2E5FD",
"GX c #E4EAFF",
"HX c #EBECFF",
"JX c #E4E3F5",
"KX c #EBF3FF",
"LX c #F5FBFF",
/* pixels */
"                                                                                                                                ",
"                                                                                                                                ",
"                                                                                                                                ",
"                                                                                                                                ",
"                                                                                                                                ",
"                                                  [ B.Z.V.}                                                                     ",
"                                              [ 7.B.-X9X9X2X} W Y b 7                                                           ",
"                                            e.-XA.2X8XT.8X2XV./ K r r K W Y                                                     ",
"                                        T e.A.C.Z.H.2X2XA.8.T m b J Q P T T I b w                                               ",
"                                      ] e.7.3.V.Z.V.S.H.M.^ I I $X[ P v P Y ~ I Y T W                                           ",
"                                    ' ] ] / ] e.2X2XS.^ P T 8.2X` ` I ^ Q T ^ / ! ! 5.Y h                                       ",
"                                J W ' ( ( =.V.2XA.=.P v ^ A.A.5.3.7.8.t.! Q ] N.C.3.=.6.6.r._                                   ",
"                                Q Y P I D.2XA.` J P Q D.V.D.8.4.A.Z.A.5.Q 3.3.%X9X$X] ] q.A.#X}                                 ",
"                              H v b N 3.9.Y J W Q ] N.V.e.8.8.8.3.] t.3.^ e.^ V.#X#X[ ] ^ ~ -X9X/.                              ",
"                            g b d v P h d v Q 9.8.A.A.7.3.5.7.3.5.8.N./ 3.6.^ Z.%X$X] 7.5.~ e.-X-X_                             ",
"                          r e 4 8 9 : 3 H r.Z.D.B.Z.Z.7.` ^ 3.V.Z.Z.5.Q 6.3.` B.C.S.] ` ` ` r.B.-X#X                            ",
"                          8 2 8 9 $ # r W B.D.V.S.S.3.( ] A.7.A.e.5.4.5.D.=.D.S.A.Z.7.] 4.3.[ &XB.#X}                           ",
"                          2 8 8 # , r J / ] 7.Z.D.] ( / %XB.9X%Xq.8.C.M.M.M.S.S.A.A.e.3.8.4.7.%X%X#X}                           ",
"                        : : 4 & : 7 v W I ^ D.=.^ ( / -X9X%XA.7.8.S.H.S.S.C.S.M.A.A.N.9.q.q.8.%XA.B.} J                         ",
"                        > 2 , $ 7 e v v N ^ N N ] ] V.2XB.A.} B.t.A.H.S.C.C.H.C.H.A.M.D.M.0.8.A.Z.D.[ (                         ",
"                        # % $ O 2 d i b I N N ( ~ [ 2XN.Z.7.7.V.C.H.H.H.C.C.C.H.T.M.D.M.M.-.4.Z.Z.D.! (                         ",
"                        @ $ & f & 0 0 v m v ^ ( Q Z.Z.D.6.^ 3.<.A.H.T.;XJ.G.M.H.G.M.M.G.M.-.0.C.D.9.N I                         ",
"                        : > d 9.& # p n v N ( v V.e.R %.E I ! 3.H.T.H.H.M.G.C.G.F.q.M.M.g.-.0.C.8.;.n N                         ",
"                        w , 0 ! N 1 1 i m P r D.S.I ! U m m %.w.G.2XJ.C.9.G.G.C.w.q.C.w.-.0.q.t.3.U n n                         ",
"                        3 7 < 1 v B b 0 v e / C.B B B m p l =.J.:X:X=.=.q.t.w.%.%.-.0.%.q.w.w.&.o.a p v                         ",
"                        j h > $ b v ! b i N S.( U N i & d 0.3XG.9.%.B X.*.-.w.%.O.+.U X.g.x.*.B l a i s                         ",
"                        P 5.b 2 v N b n n -.B f d 1 < m q.J.G.g.-.;.;.z..X.Xy.R Z Z ..#.a.a.;.f j u i d                         ",
"                        r h W J W N d n V V p i 1 s m %.;X3Xg.-.-.-.s.l.>.Z A ; X u L @.b.L.%.i + . 2 w                         ",
"                          3 e 3 b v 0 B L.a % < i m R %.J.,XJ.*.c..X.X>.A = * X * k 2.s.1XeXR * . o +                           ",
"                          H 3 @ & p V L.u.L.&.i x f m s.6Xx.-.f.7X0XeX.X .A A r k / :X1X0XwX|.q + -                             ",
"                          3 q - O & *.@.i.o.g.*.M M X.x.c.w.c.4X8X8X7XtXwX;Xy.%.%.G.qX5XeXwXeX<.j s                             ",
"                          d e - @ 1 ;.i.7X:.*.i.;.*.s.K.s.2.J.,X9XDXtX7X5X<X,XU.3XI.6X6X6X6XqX1X5.                              ",
"                          8 7 - @ f 1.d.u.u.&.d.p.*.p.:.*.u.P.,X0XwXDXDXwXqX5X5X3X7XqX0X0XrX<XwXC.                              ",
"                          > 2 3 0 E L m.b.<Xd.d.Y.p.:.:.*.p.d.c.;XeX0X0XeX0X6X6X6X7XyX7X6X5X8XtXwX                              ",
"                          < 8 7 b Q f u.P.qX,Xd.Y.g.:.*.:.a.d.j.c.P.1X1X1X1X<X6X7X6X3X,X4X6X1X6X0X                              ",
"                          9 5 4 b b 5 +.<X1X<X1XK.g.g.:.a.a.a.j.j.b.b.c.b.P.1X,X4X4XI.b.h.i.$.:.y.                              ",
"                            < < , v < 6 u.<X1X<XK.K.f.p.g.f.:.a.j.h.h.j.b.b..X,XU.U.U.b.:.@...#.1.                              ",
"                            8 # < 7 4 O % 1.wX:XK.g.g.g.f.c.j.a.h.k.k.k.b.b.P.,XU.U.3XT.>XT.w.t.b.                              ",
"                            8 O w # $ : @ x 2.;X*.o.1.s.x.P.K.j.j.j.j.j.b.L.L.,XU.3X6X6XqX0X.X1X                                ",
"                              8 6 - + 2 % k j E z M 2.c.z.c.K.b.K.j.j.L.L.L.P.,XY.3XqX<Xn.,.G $.                                ",
"                                3 : - 9 % f O.R &.+.O.y.c.c.j.j.K.K.L.L.Y.Y.Y.L.-.:.$.S D z y c                                 ",
"                                w : 3 d s 9 R <.-.%.O.2.y.s.f.b.b.b.K.K.K.K.K.F.*.c D l.}.K D                                   ",
"                                w 7 w 8 v i R 2.1.&.+.o.1.z.z.d.j.K.K.K.L.K.K.g.G.m.,.,..X,.,.                                  ",
"                                e w 7 , j j R 0.p.p.O.X.&.s.z.z.d.k.K.K.F.K.K.K.3X1Xm.#.F F G                                   ",
"                                h w : : j s l %.x.J.&.L ..+.2.s.u.d.b.b.f.f.K.Y.L.Y.C.&.#.S                                     ",
"                               .| { Y  .' C j T 2.t.s.o.L L L +.1.u.d.f.f.K.Y.4XT.yX7XT.c.<X                                    ",
"                              { vXnXZXnXnX}.{ | <.y.s.u.o.M z Z +.+.&.1.s.f.K.I.2X3X4XyX,XwX                                    ",
"                            ^./.SXcXxXxXMXaX^.aX:Xy.w.u.:.@...z x x Z #.*.1.s.s.U.,X4XH.b.wX                                    ",
"                iXjXvXMXNXNXNXFXNXMXvXmXMXuXXXaXBXsX|.w.-.*.#.#.L z a u A Z L %.u.h.u.:.c.,X                                    ",
"              ZXNXFXZXmXmXmXbXFXZXMXvXMXNXuX^.aXsX*X*X|.|.l.*.+.@.V c z u u 3 h k l O.@.                                        ",
"            MXNXjXjXvXmXjXxXNXFXZXbXcXMXmXuXXXvXdXaXXXXXXX=X|.6.V @...z M 5 o q C                                               ",
"            MXhXgXOXzXZXMXkXNXFXZXbXMXNXvXaXpXMXvXjXlXXXXXpXsX=X2.B ..z l 7 t R.{                                               ",
"          bXZXkXkX+XjXMXkXkXNXZXZXMXAXZXbXjXBXMXpXpXpXjXjXjXBXvX=XR L j C A E.).{                                               ",
"          MXlX@X`.'.+XxXmXkXMXGXAXZXZXZXvXjXvXzXoXpXfXnXJXnXBXlXpX}.Y K ) {.E.R.                                                ",
"          MXlXlX@X@XOXxXMXmXmXZXAXAXZXNXmXvXMXpXBXvXbXFXFXNXBXpXlXXX X X) ) Q.~.SXdX+X!.W.W.!.iX^.                              ",
"        zXjXkX@X).).'.gXxXmXzXAXAXAXZXMXvXNXNXjXfXFXGXFXBXnXnXfXXXoXXXlXzXW.!.OXcXAXAXKXGXAXKXNXAXAXAXcX                        ",
"      ZXhXxXxX].).Q.'.+XzXZXzXZXZXZXFXMXMXZXNXbXGXFXbXzXzXNXNXiXlXgXuXMXNXuX'.oX].oXmXhXzXbXGXZXbXZXZXAXzX                      ",
"    AXNXOXkXOX'.~.`.OXcXxXMXMXMXvXZXGXMXmXNXMXMXjXuXuXvXNXuX~.).gXXXuXbXNXaXQ.(.(.`.).).NXZXNXFXZXZXMXZXZX                      ",
"    KXiXcXcX'.~.'.SXOXSXjXlXMXlXjXvXNXuXhXMXvXjXuXpXxXOX{.!.cXNXNXMXvXNXFXvXXXXX(.(.Q.~.MXcXkXxXiXcXMXxXcX                      ",
"    ZX'.cXjX+X~.!.OX!.+X~.^.pX'.^.jXmXuXmXZXmXjX'.kX@X'.mXNXxX@XxXjXjXxXMXvXvXbXkX@XxXMXMXkXmXxXMXMXZXjXZXuX                    ",
"  JXKXZXNXZXMXhXaXnXaXaX^.^.aX^./.aXXX^.uXNXzXcXmXgXgX@XQ.R.Q.'.~.`.`.oXlXkXBXmXmXjXNXNXzXiXmXmXMXjXzXzXMXzX                    ",
"LXKXKXFXZXMXMXjXJXGXKXJXfXCXsXsXaX X/.{  XvXiX+XhXNX].Q.[.[.(.OXgXkXlX`.).'.XXoXvXvXvXdXZXZXZXFXGXZXNXZXZXzXdX                  ",
"iXGXiXiXjX!.+XdXfXbXGXnXHXJXHXJXVXVX=X}.FXGXiX^.OXxXOXQ.).cXZXZXFXFXxX).Q.(.[.).+XiXzXOXMXNXMXjXmXvXkXxXNXxXHXLX                ",
"mXkXkXOXjXZXZXLXGXGXGXbXHXFXJXfX=XVXVX=XfXnXcXGXdXOX+XOX'.R.) jXfXNXBX`.'.XXuXuXlXgXZXZXxXMXMXQ.) Q.oXgXkXlXzXNX                "
};
