/* XPM */
static char *rsz_taylor_swift_up_removebg_preview__1_1687273514[] = {
/* columns rows colors chars-per-pixel */
"64 59 238 2 ",
"   c None",
".  c #4B2A19",
"X  c #5C371D",
"o  c #592E1C",
"O  c #5B3B27",
"+  c #4B3227",
"@  c #663D27",
"#  c #763B38",
"$  c #6E452B",
"%  c #77472C",
"&  c #6C4933",
"*  c #724D34",
"=  c #784838",
"-  c #755134",
";  c #7C5335",
":  c #7C543B",
">  c #78563C",
",  c #7D5B44",
"<  c #7A5052",
"1  c #7E6044",
"2  c #726476",
"3  c #85583B",
"4  c #90523A",
"5  c #83613C",
"6  c #835C43",
"7  c #885C46",
"8  c #985143",
"9  c #836346",
"0  c #8B654B",
"q  c #8C6A4B",
"w  c #886349",
"e  c #916C4D",
"r  c #966849",
"t  c #9B734E",
"y  c #8D6C52",
"u  c #8B6856",
"i  c #936D54",
"p  c #9B6953",
"a  c #8E7054",
"s  c #957255",
"d  c #947559",
"f  c #9B755A",
"g  c #9C7A5D",
"h  c #987757",
"j  c #A5694C",
"k  c #A5764C",
"l  c #A36C5C",
"z  c #A86C50",
"x  c #B16F54",
"c  c #A47C5B",
"v  c #A67556",
"b  c #B57A5C",
"n  c #9B7C63",
"m  c #987A67",
"M  c #96726B",
"N  c #A87A65",
"B  c #B47C64",
"V  c #A67973",
"C  c #C47864",
"Z  c #9F835C",
"A  c #A7835D",
"S  c #9F836B",
"D  c #9E8063",
"F  c #9D847D",
"G  c #A48364",
"H  c #AA8464",
"J  c #AD8A63",
"K  c #A4856C",
"L  c #AB866B",
"P  c #A58A6D",
"I  c #AC8C6C",
"U  c #A78966",
"Y  c #BB876C",
"T  c #B38C6C",
"R  c #BC8B6C",
"E  c #B58768",
"W  c #AF926B",
"Q  c #B4916D",
"!  c #A58B74",
"~  c #AB8C72",
"^  c #AC8D79",
"/  c #A28678",
"(  c #B78B72",
")  c #AD9174",
"_  c #AD927A",
"`  c #AF9879",
"'  c #B39474",
"]  c #BB9474",
"[  c #BB9A74",
"{  c #B2957C",
"}  c #B59B7C",
"|  c #BB9B7C",
" . c #B89778",
".. c #BCA17E",
"X. c #C28768",
"o. c #C18C72",
"O. c #C88C79",
"+. c #CA957C",
"@. c #C49C7B",
"#. c #C89677",
"$. c #D49C7C",
"%. c #D4977A",
"&. c #C4A37D",
"*. c #D7A27F",
"=. c #8F7C90",
"-. c #8A819C",
";. c #988C9A",
":. c #B69B83",
">. c #BB9D83",
",. c #BB9D8B",
"<. c #B39586",
"1. c #AE8D8B",
"2. c #BEA184",
"3. c #BCA28A",
"4. c #BEA889",
"5. c #BDA592",
"6. c #BBA298",
"7. c #968BA6",
"8. c #9E94AD",
"9. c #968DAB",
"0. c #A295AC",
"q. c #A799A9",
"w. c #B59CA3",
"e. c #A499B3",
"r. c #A79CBA",
"t. c #BCA4A7",
"y. c #ABA1B5",
"u. c #ADA3BC",
"i. c #ABA9B9",
"p. c #B4A6BA",
"a. c #B8A7B8",
"s. c #BAB1BD",
"d. c #C49C82",
"f. c #CA9985",
"g. c #D39B83",
"h. c #DB9D82",
"j. c #D89E8B",
"k. c #C2A284",
"l. c #CBA384",
"z. c #C3A58B",
"x. c #C5AA8B",
"c. c #CBAC8C",
"v. c #CBA788",
"b. c #D5A183",
"n. c #DBA384",
"m. c #D5A28B",
"M. c #DCA48C",
"N. c #DEAA8B",
"B. c #D5AA8A",
"V. c #CBB18E",
"C. c #C2A592",
"Z. c #C5AA93",
"A. c #CAAD93",
"S. c #C8A89A",
"D. c #D4AC93",
"F. c #DBA896",
"G. c #CDB193",
"H. c #CCB39B",
"J. c #C7B296",
"K. c #D2B394",
"L. c #D2B49B",
"P. c #D8B79B",
"I. c #D3B08D",
"U. c #E2AA8E",
"Y. c #E2A38D",
"T. c #E3AC91",
"R. c #E7A896",
"E. c #E8B499",
"W. c #F3B39B",
"Q. c #C6ABA9",
"!. c #D4BDA4",
"~. c #D7B8A8",
"^. c #CAB6BB",
"/. c #CEB3B0",
"(. c #EAB8A6",
"). c #F0BCA4",
"_. c #DCC1A9",
"`. c #EEC5B0",
"'. c #AC9EC1",
"]. c #ADA4C2",
"[. c #ADA6C6",
"{. c #B4ACC4",
"}. c #BCACC5",
"|. c #B4ACCB",
" X c #B5AAC8",
".X c #BBB3CC",
"XX c #BAB4CA",
"oX c #BCB4D3",
"OX c #BFBAD2",
"+X c #B9B3D5",
"@X c #B5ABD4",
"#X c #C2B3C3",
"$X c #CBBBC5",
"%X c #C4BBCB",
"&X c #CABBCC",
"*X c #C4B7CA",
"=X c #D6BDC8",
"-X c #C2B6D2",
";X c #C3BCD4",
":X c #CABDD3",
">X c #C3BCDB",
",X c #C9BFDB",
"<X c #CCB2CB",
"1X c #D8C2CA",
"2X c #CCC3D3",
"3X c #C6C1DB",
"4X c #CBC4DC",
"5X c #CDCADE",
"6X c #C3C1D6",
"7X c #D1C4DC",
"8X c #D3CADC",
"9X c #D9C8D6",
"0X c #CDC6D2",
"qX c #E2C6CB",
"wX c #E8CEDA",
"eX c #CCC4E2",
"rX c #CECAE2",
"tX c #CBC5E6",
"yX c #D2CCE4",
"uX c #D9CEE4",
"iX c #D3CDE9",
"pX c #D0C5E2",
"aX c #D6D1E6",
"sX c #DBD3E4",
"dX c #D6D2EA",
"fX c #DAD4EB",
"gX c #DDD9EE",
"hX c #DEDAF2",
"jX c #DBD7F1",
"kX c #E4DAEC",
"lX c #E6D8EA",
"zX c #E1DDF3",
"xX c #EBDEF2",
"cX c #E5E1F4",
"vX c #ECE3F4",
"bX c #EBE7FB",
"nX c #F4EAF7",
"mX c #F5E8F3",
/* pixels */
"                                                                                                                                ",
"                                                                                                                                ",
"                                                                                                                                ",
"                                                                                                                                ",
"                                                                                                                                ",
"                                                                                                                                ",
"                                                                                                                                ",
"                                                          ~.H.4.4.5.5./ F 6.                                                    ",
"                                                      ~.~.Q.C.S.Z.,.3.H.5.5.6.V                                                 ",
"                                                  ~._.H.x.Z.L.H.,.^ 3.Z.} I <.3.,.                                              ",
"                                                ~.~.J.x.L.P.>.m K z.P.! 9 K z.~ _ Z.C.                                          ",
"                                            ~.~.L.J.P._.2.P ~ ^ { L.} s d C.,.m S :.z.<.6.S.                                    ",
"                                          H.H.J.L._.G.) K :.>.:.z.Z.S d :.S.! m 1 5.! ! / 5.,.C.                                ",
"                                          J.4._._...P _ 3.>.>.{ H.{ g P H.) a , K :.D <.P _ ~ <.,.                              ",
"                                        S.4.4.J.3...2.3.C.<.~ Z.d.S P H.} g y s z.K { ! ! ! S ^ _ 5.L.                          ",
"                                        ` 2.3.3.3._ :.Z.{ K >.H.m K G.>.g G d } { ) x.m _ ^ K <.K ,.Z.(.                        ",
"                                      :.' } :.{ ! :.3._ S ) x.` d A.2.y g K ~ >.) x.z.P { ! _ N / ,.4.!.`.                      ",
"                                      2.P | ~ m ^ >.{ N g } 4.D 4.4.q g { P v.) } V. .) { _ :.m _ { :.J._.                      ",
"                                    >.' I ' y d S _ n 9 } x.P I A.y 9 | ` 2.| T L.x.' )  .3.~ n 3.) :.4.H.~.                    ",
"                                    <.' I d w u m g > ' 2.W D c.y - ~ 4.[ } U V.V.) W ' | } K :.3.` 2.4.G._.                    ",
"                                    <.J G , & , 0 > | :.P a 4.m * ! H.` [ U G.x.Q W W &.} 2.2.k.,.>.2.z.G.L.(.                  ",
"                                    _ U s > O & : L L n a } S & 2.L.` ' A x.x.U A W &.@.k.2.d.' k.d.d.c.G.H.P.                  ",
"                                    ! g , + + 9 t r 9 6 I S O _ x.[ Q c ..k.H A J @.l.d.| | Q k.z.| l.D.K.G.P.                  ",
"                                    / g > . , 6 * % $ q s O S ) ) T h ' x.J A [ &.[ >.|  .[ [ [ T k.v.A.I.V.K.                  ",
"                                    m G 9 6 $ o @ O * 3 @ s 9 g P s I x.G A [ ..| k.| 2.v.~ Z A &.l.I.D.c.c.D.                  ",
"                                    ! 1 h & @ @ o - ; & s * 6 s 9 t ..G W } W Q | k.>.T d q [ v.+.$.P.v.v.Z.D.                  ",
"                                      D w & X @ * - * q - ; 7 @ > Q G ` 2.[ Q ] k.' A k E @.#.Q $.v.B.] l.x.,.                  ",
"                                      M m s @ & & * : - = 3 @ 3 H H } | | o.@.R i I I A k t b $.g.B.[ Q | :.                    ",
"                                        y ~ e - 6 r 3 3 ; % 7 v c T ' ( c N.E.g.4 X 5 j j E n.n.*.b.H @.(                       ",
"                                        y s t q r 3 3 3 7 t t v c b H m f.f.o.O.j 4 4 4 k %.T.n.*.B ( B                         ",
"                                        g A &.&.@.5 3 ; 3 r t t v T v N ~.j.B B x j j x X.Y.U.n.#.o.p #                         ",
"                                        P K.&.P.] t R t ; 9 f G T ' n f.g.Y.b Y %.%.%.%.*.*.Y.*.$.O.N j.                        ",
"                                        >.P.&.I.h q Q Q 6 9 q i K A h d.v.j.x z E.*.$.*.*.*.*.Y.h.j.m.E.`.                      ",
"                                      { | x.V.[ W ; A J 0 7 d g G q H T D.g.Y.X.b.N.*.$.%.%.%.Y.Y.F.F.E.`.                      ",
"                                      ~ I P } U [ [ A t w u 9 i 0 t T ] Y M.Y.U.h.h.h.$.%.%.*.Y.Y.F.D.F.).`.                    ",
"                                    A.>.W I > > s ..L.e 6 i s w w v ( I l f.b.n.n.n.n.N.Y.*.Y.*.h.F.F.).W.R.                    ",
"                                    _.z.T 2.9 - q W } >.7 G e r j r T #.8 j #.#.$.N.N.U.T.T.Y.$.%.g.f.O.C                       ",
"                          mXkX    ~.H.:.G ' W d d [ e ' 6 > 6 p v N >.@.z 4 8 b *.N.T.T.T.T.Y.g.O.C o.                          ",
"                            nXxX&X^.<.[  .| v.G i r 3 E r b ( O.+.d.k.V.R b b $.n.U.T.T.T.T.F.+.X.R E.                          ",
"                            vX2X#X2Xt.K c K 0 6 q 5 q c { @.l.m.l.f.*.*.#.X.X.*.N.F.N.N.Y.M.b.+.Y O.(.                          ",
"                              2X X6X9X1.: N . & , s 1.t.9X/./.S.C./.C.P.S.,.( $.b.j.b.m.g.g.%.+.C 8                             ",
"                            8X4X.XOX,Xa.P v X & m Q.#X-XeXfXuX7X}.XX#X^.^.^.1.O.$.+.+.$.g.+.O.] %.                              ",
"                            sX5X;X.X:X-X/.p d &X9XsX:X*X%X5XyX7X2XOX&X#X_.6Xw.N o.Y o.o.o.o.o. .f.                              ",
"                            5X5X3XOX4X>X^.v u fXaXsXsX7X4X-X4XfX8X-X2X2X^.2X%Xt.l l B E Y Y ( f.m.                              ",
"                            5X4XtX>X,X,X$Xk ^ fXeXuXsXpX>X-X4XyXaX8X4X5X$X1X2X2X< < p l N B { j.W.                              ",
"lX                          4X4X>X>XpX'.;.k V uXfXpX8X>X-X>XoXrXpXdXyX4X0X#X2X%X;.  # < 7 l Y f.R.                              ",
"aXfXkXkX                    4XeX,X@X@X,X#Xw.V ,.w.,X+X@X@X>X>X;XyXyXyX4X5XXX%X*XqX          l                                   ",
"rXaXfXaXfXlX              8XeX,X:X@X'.-X-X#X=.p E 1.#X'.r.+X>XXX4XyX5X4X5X2X$X%X<X                                              ",
"jXjXhXaXrXiXtX3X8X        &X4X6X.X|.|.:X@X[.7.V s V M =.[.|.|.6X6X3XrXyX>X4X7XOXa.                                              ",
"dXfXdXrXrXtX+X6X.X&X9X=X=X:X,X>XOX.X4XpX,X}.r..X0.1.=.Q.@X|.+X4X4X5X4XrXiX3X3X>X7X                    mX            nX          ",
"jXhXhXhXrXOX6X{.sXsXsX$X=X2X:XeX;X4XaXdX;XOX3X4Xe.y.Q.}.[.@XoX+X|.3X;X-XeXOX].}.:Xs.      xX  9X      kX2XxX8XkXsX0XnX          ",
"gXgXjXjXrXOX{.XX7X3X5XsX5X4X3X;X,XuXgX:XoX>XyX:Xr.{.y.7.[.+X Xr.7.y.pX-X;XpXp.a.<X^.=X  lXgXOXOXfXlXvXcXgXbXsXgXfX%XnX          ",
"yXaXiX3XOX|.OX{..X XXX]. X4XpX4X.Xe.].e.;XyX:X0.}.XXp.7.-.7.r.,XXX|.,X.X{.2X#X=X=XqXqXqX=X>X3X;X>XdXhXzXzXhXhXcXcXxXbXvXvXnX    ",
"3X5XrXaX3XXXOXXXXXoX.X].p.r.{.-Xr.0.7.}.4XXX;.2 q.&Xy.0.7.0.}.-X8.9.0. X>X;X7XxXlX9XqXqX$Xp.4XeX4XyXyXrXfXgXjXfXrXfXfXkXvXvXnX  ",
"yXhXjXeX+XyXdX5X;XrXyX5X6X%X{.r.].oX-X}.0.7.e.a.s.s.}.p.XXp.e.8. X3XrXiXeX4X-X-XuX*X$XwX=Xa.>X|.>X+X>XrXrX5XdXhXjXaXaX,X  vXcXvX",
"hXdX+X].6XdXdXyX4X5XyXaXyX4X;XXXu.e.7.=.9.{.q.a.&X:X#X,X:X.XXX4X5X.X|.oX;X4XpX5X2XyXuX9XqXy.].tX+X>X,X>X5XdX3XOX3XdX5X:X    cXcX",
"rX+XOXtXrXaXaX4X;X>X6X5XpX5X;XXXi.9.7.r.{.y.t.*X:X:X.X:X-X;XOXXX>X.X3XrXrX3XjXbXbXbXbXkX9X&X].>X,X>XbXcXOXOXfXdX{.].u..X  vXcXfX",
"XX3XtXOX3X4X6X;XyX5XOX{.{.XXXX{. X|.e.8.;.S.Q.<X,X:X#Xq.#X.X4XXX]. X|.{.[.].+X|.OX3X3X6X:X4X|.[.tXtXtXhXbXyXoXrXhX3Xy.7XcXvXvX  ",
"5X6X{.4XdXyX>X-X4XdXdX5XXXu.XXoX X[.y.q.Q.Q./.-X;X&X#Xw.^.rX3X|.8.-.7.-.=.-.9.{.-Xe.u.+XyXcXeX].@XiXdX|.rXcXhXOX6XgXXX}.nXmX    "
};
