/* XPM */
static char *result[] = {
/* columns rows colors chars-per-pixel */
"53 70 247 2 ",
"   c #2B181C",
".  c #331B24",
"X  c #392A2A",
"o  c #312931",
"O  c #3C241F",
"+  c #442A28",
"@  c #4B322C",
"#  c #46322D",
"$  c #53352D",
"%  c #55392F",
"&  c #4B3736",
"*  c #5A3D33",
"=  c #553934",
"-  c #522D32",
";  c #643B38",
":  c #71373B",
">  c #5A423B",
",  c #63443B",
"<  c #68443C",
"1  c #7E493E",
"2  c #733E47",
"3  c #643D4F",
"4  c #5F394E",
"5  c #594746",
"6  c #5D425B",
"7  c #674C45",
"8  c #774547",
"9  c #69534C",
"0  c #74544B",
"q  c #744958",
"w  c #685757",
"e  c #765857",
"r  c #7B625C",
"t  c #6F615E",
"y  c #775765",
"u  c #735877",
"i  c #6B4F6C",
"p  c #7B6965",
"a  c #776573",
"s  c #554872",
"d  c #833A39",
"f  c #903B49",
"g  c #A73954",
"h  c #864746",
"j  c #944B47",
"k  c #89564A",
"l  c #94574B",
"z  c #885757",
"x  c #965857",
"c  c #8F4C55",
"v  c #A45657",
"b  c #A94F52",
"n  c #8A655A",
"m  c #98675A",
"M  c #9B705F",
"N  c #A76758",
"B  c #B4745C",
"V  c #AE6D58",
"C  c #8C5C61",
"Z  c #975A64",
"A  c #804F63",
"S  c #B35364",
"D  c #846A64",
"F  c #9A6567",
"G  c #88736C",
"H  c #9A7365",
"J  c #8C7974",
"K  c #927C74",
"L  c #977B7A",
"P  c #846474",
"I  c #A36C6B",
"U  c #A76868",
"Y  c #B56D6A",
"T  c #A7786A",
"R  c #B67866",
"E  c #AD7372",
"W  c #A77473",
"Q  c #B37573",
"!  c #B87A77",
"~  c #A96B74",
"^  c #C2796A",
"/  c #C37D7C",
"(  c #C87976",
")  c #C86572",
"_  c #CB5578",
"`  c #9A857C",
"'  c #8F807A",
"]  c #B9846C",
"[  c #A78677",
"{  c #B98679",
"}  c #BB927C",
"|  c #C2867D",
" . c #C4897A",
".. c #C28973",
"X. c #655986",
"o. c #7C5D85",
"O. c #796587",
"+. c #7C6996",
"@. c #736893",
"#. c #7D72A6",
"$. c #7A6CA3",
"%. c #836C98",
"&. c #887294",
"*. c #8B7BAD",
"=. c #8778A6",
"-. c #8B7DB3",
";. c #957EAC",
":. c #B07A86",
">. c #DA5D86",
",. c #DA6B8B",
"<. c #E47C98",
"1. c #E27EA2",
"2. c #9A8984",
"3. c #998E93",
"4. c #A48C84",
"5. c #B78783",
"6. c #AB958C",
"7. c #A99389",
"8. c #B79688",
"9. c #AD9B94",
"0. c #A59896",
"q. c #B29E94",
"w. c #BA9D93",
"e. c #A88496",
"r. c #B5A39B",
"t. c #BBA79C",
"y. c #B6A193",
"u. c #8C84A9",
"i. c #9389AB",
"p. c #8D84B6",
"a. c #948BBC",
"s. c #978AB8",
"d. c #9A93B8",
"f. c #9993A9",
"g. c #A797AC",
"h. c #A998B9",
"j. c #AD92AE",
"k. c #BCAAA3",
"l. c #B8A9A7",
"z. c #BDB3B2",
"x. c #BEB2AE",
"c. c #CC8B84",
"v. c #C78A85",
"b. c #CB958C",
"n. c #C59685",
"m. c #D5968A",
"M. c #CC9B95",
"N. c #D39C93",
"B. c #DA9A95",
"V. c #D38988",
"C. c #E19E9A",
"Z. c #C7A898",
"A. c #D5A39B",
"S. c #DCA69B",
"D. c #DAA799",
"F. c #CCA490",
"G. c #E4A99C",
"H. c #E8B09F",
"J. c #EA8BAC",
"K. c #C3ACA2",
"L. c #DAA9A5",
"P. c #C4B1A5",
"I. c #CAB4A9",
"U. c #D4B9AA",
"Y. c #CCBBB3",
"T. c #C6BBB8",
"R. c #D2BEB2",
"E. c #D1BFB8",
"W. c #E4ACA3",
"Q. c #E9ABA4",
"!. c #E8B4A8",
"~. c #F3B7AA",
"^. c #EDBCB3",
"/. c #EABAB3",
"(. c #F3BCB2",
"). c #F4A7B1",
"_. c #CEC1BE",
"`. c #D6C4B9",
"'. c #E8C4B9",
"]. c #F6C4BA",
"[. c #9A8EC2",
"{. c #9C94C4",
"}. c #9D9CCB",
"|. c #9B95C5",
" X c #A295CA",
".X c #A49CCB",
"XX c #A59AC7",
"oX c #AB9CD3",
"OX c #A599D1",
"+X c #AC98C6",
"@X c #9EA3D1",
"#X c #A5A2CD",
"$X c #AAA3CE",
"%X c #A5A2C7",
"&X c #B7A7C8",
"*X c #A4A4D3",
"=X c #ABA4D4",
"-X c #ADA9D5",
";X c #ACACD9",
":X c #A9A6D7",
">X c #B1A5D5",
",X c #B3ABD5",
"<X c #B3ACDB",
"1X c #B7AADA",
"2X c #B5B1DD",
"3X c #BBB2DD",
"4X c #B9B4D8",
"5X c #BFB0CB",
"6X c #B7ACE1",
"7X c #BBB5E3",
"8X c #BDBAE5",
"9X c #BBB6E6",
"0X c #CABAC7",
"qX c #C8BAD8",
"wX c #D2BBD2",
"eX c #C2BCE4",
"rX c #C2BDEA",
"tX c #C2B8E2",
"yX c #D9CBC5",
"uX c #DDD1CC",
"iX c #CDC2D1",
"pX c #F9CCC2",
"aX c #E5D5CA",
"sX c #FCD4CB",
"dX c #E8DBD4",
"fX c #FDDBD4",
"gX c #EFE3DC",
"hX c #C6C1E6",
"jX c #C5C2EB",
"kX c #CAC5EB",
"lX c #CDCAED",
"zX c #CAC5E5",
"xX c #D3CCEB",
"cX c #CAC8F3",
"vX c #D1CEF2",
"bX c #D4D3F4",
"nX c #D5D3F9",
"mX c #DDDCFA",
"MX c #DAD9F6",
"NX c #D5D4ED",
"BX c #E0DFFA",
"VX c #E2E3FB",
"CX c #EAEDFC",
"ZX c #E4E5F9",
"AX c #EFF0FD",
"SX c #F0EAED",
"DX c None",
/* pixels */
"DXDXDXDXDXDXDXDXDXDXDXDXDXDXDXDXDXDXDXDXDXDXDXDXDXDXDXDXDXDXDXDXDXDXDXDXDXDXDXDXDXDXDXDXDXDXDXDXDXDXDXDXDX",
"DXDXDXDXDXDXDXDXDXDXDXDXDXDXDXDXDXDXDXDXDXDXDXDXDXDXDXDXDXDXDXDXDXDXDXDXDXDXDXDXDXDXDXDXDXDXDXDXDXDXDXDXDX",
"DXDXDXDXDXDXDXDXDXDXDXDXDXDXDXDXDXDXDXDXDXDXDXDXDXDXDXDXDXDXDXDXDXDXDXDXDXDXDXDXDXDXDXDXDXDXDXDXDXDXDXDXDX",
"DXDXDXDXDXDXDXDXDXDXDXDXDXDXDXDXDXDXDXDXDXDXDXx.z.z.z.T.z.T.T.iXiX_.DXDXDXDXDXDXDXDXDXDXDXDXDXDXDXDXDXDXDX",
"DXDXDXDXDXDXDXDXDXDXDXDXDXDXDXDXDXDXDXJ ` 0.x.x._._.T.l.l.t.P.0XyXT.T.DXDXDXDXDXDXDXDXDXDXDXDXDXDXDXDXDXDX",
"DXDXDXDXDXDXDXDXDXDXDXDXDXDXDXDXDXDXJ ' 3.9.y.r.t.r.l.k.9.4.4.w.x.Y.E.Y.T.DXDXDXDXDXDXDXDXDXDXDXDXDXDXDXDX",
"DXDXDXDXDXDXDXDXDXDXDXDXDXDXDXDXDXG J ' 0.` 0.9.q.y.y.r.q.6.L L 4.k.Y.E.T.P.DXDXDXDXDXDXDXDXDXDXDXDXDXDXDX",
"DXDXDXDXDXDXDXDXDXDXDXDXDXDXDXDXt t ' 0.` } } 9.7.7.7.9.9.0.L D J 6.r.Y.yXE.Y.T.DXDXDXDXDXDXDXDXDXDXDXDXDX",
"DXDXDXDXDXDXDXDXDXDXDXDXDXDXDXw 9 G ' [ 7.7.} ` [ 7.9.9.3.` ' p e ` q.K._.`.yX`._.DXDXDXDXDXDXDXDXDXDXDXDX",
"DXDXDXDXDXDXDXDXDXDXDXDXDXDXw w 0 ' [ ` ` ` ` ` q.9.9.0.2.' 7.7.L K q.Y.T.`.uXyX_.DXDXDXDXDXDXDXDXDXDXDXDX",
"DXDXDXDXDXDXDXDXDXDXDXDXDXw 5 9 0 [ [ ' ' ' [ 9.r.0.9.6.7.` y.x.9.4.9.I._.`.uXuXuX_.DXDXDXDXDXDXDXDXDXDXDX",
"DXDXDXDXDXDXDXDXDXDXDXDXt 5 > t ' ' ' ' ' ' ` y.9.r.r.r.9.9.`.z.9.q.9.P.`._.uXdXdXuX_.DXDXDXDXDXDXDXDXDXDX",
"DXDXDXDXDXDXDXDXDXDXDXDX5 > 9 p ' r p r p ' 7.0.r.x.P.t.7.t.`.x.3.y.r.t.I.`.`.uXgXgXuXiXDXDXDXDXDXDXDXDXDX",
"DXDXDXDXDXDXDXDXDXDXDXw 5 5 t r 0 t r r G ' ` 9.x.k.P.q.6.`.`.x.3.9.r.P.Z.`.`.yXuXgXgXuX_.DXDXDXDXDXDXDXDX",
"DXDXDXDXDXDXDXDXDXDXDX> > , , , < 9 9 r r G 7.9.t.P.t.6.y.`.`.t.6.9.t.I.P.I.`.aXuXdXgXgXyXDXDXDXDXDXDXDXDX",
"DXDXDXDXDXDXDXDXDXDX> > > > > > , 9 0 0 r ' 9.y.t.t.y.q.I.`.k.K.6.t.I.Y.I.Y.`.aXdXdXgXgXuXDXDXDXDXDXDXDXDX",
"DXDXDXDXDXDXDXDXDXDX5 > % @ > , , < 9 0 r ` 7.6.y.y.q.y.`._.P.k.} P.U.U.R.R.U.aXdXdXdXgXdXE.DXDXDXDXDXDXDX",
"DXDXDXDXDXDXDXDXDX5 > = + $ , > 9 , < 0 r ` [ 6.8.[ } t.`.y.P.Z.} P.P.R.R.`.U.'.sXaXdXdXdXyXDXDXDXDXDXDXDX",
"DXDXDXDXDXDXDXDXDX5 > @ @ > > , , > < 0 p [ ` 6.` [ } P.Z.y.t.y.y.I.U.R.R.`.U.F.`.'.'.aXdX_.x.DXDXDXDXDXDX",
"DXDXDXDXDXDXDXDXDX> & + % * > > > , < 0 M ' [ [ [ ` } y.} y.8.} } P.Z.U.U.U.D.} D.`.`.`.'.R.x.DXDXDXDXDXDX",
"DXDXDXDXDXDXDXDXDX& & @ % * , % > > , r G M [ [ [ [ [ } 8.8.{ } } y.y.Z.U.U.} } } U.F.U.`.U.t.DXDXDXDXDXDX",
"DXDXDXDXDXDXDXDXDX& @ @ * > % % $ > 1 M M M M M M [ ] [ [ [ { n.} } } } F.} ....} F.F.F.D.P.t.DXDXDXDXDXDX",
"DXDXDXDXDXDXDXDXDX# @ % > % @ O @ , 0 n M M M M M M ] H T ] v.n.[ ] ] [ ..} ] B ] } } } F.Z.t.DXDXDXDXDXDX",
"DXDXDXDXDXDXDXDX# # $ > % + O + , < 1 m m M n n l m n m M ! b.| V ] ] ] ] ..] ] ] ] } } n.M.w.DXDXDXDXDXDX",
"DXDXDXDXDXDXDXDX# # & * $ @ * , , , k m M m k k k l k l l U { R V ] V V B ..] B B R } R } n.M.DXDXDXDXDXDX",
"DXDXDXDXDXDXDXDX& > > , * * $ $ , 1 n m m k k k k k 1 k c x l N V l V V ] ....B N V ] I { 8.8.DXDXDXDXDXDX",
"DXDXDXDXDXDXDXDX5 7 z z ; @ $ ; < k N m m l h h 8 ; $ ; 2 h h j N V l B ] ..B b l N E v T n.8.DXDXDXDXDXDX",
"DXDXDXDXDXDXDXDXDXD F m z , ; ; < k M N l k 1 2 -     . + - f j l l V B ^ B b b h x Q Q R } } DXDXDXDXDXDX",
"DXDXDXDXDXDXDXDXDXD z z 8 : - ; 1 n U m l j h : .     o X = f h j V  . .^ b : + + - 2 I ! ..4.DXDXDXDXDXDX",
"DXDXDXDXDXDXDXDXDXz c x k 2 ; ; h m U N m N U x 2 4 6 i a z x U l ^ ~.!...b $ O o X . q T ..4.DXDXDXDXDXDX",
"DXDXDXDXDXDXDXDXDXC U l d 2 8 h z F N N B { v.5.! ~ I ~ Q ! :.5.{ v.^.].A.:.F y y q e { n. .DXDXDXDXDXDXDX",
"DXDXDXDXDXDXDXDXDXy I x c x l z x m U U ( c.N.M.b.b.b.b.M.M.A.A.M.N.(.sX'.S.b.{ ! e.L.'.m.} DXDXDXDXDXDXDX",
"DXDXDXDXDXDXDXDXDXy F E W W H x c x U Q ! n.A.L.L.L.L.!.U./.!.L.A.A.^.fXsX^.!.L.G.!.].pXN.{ DXDXDXDXDXDXDX",
"DXDXDXDXDXDXDXDXDXw C ~ 5.W I m x x U Y ! ,.B.C.Q.!././.].'./.D.N.A.^.sXfXsXpX].].pX].pXN.DXDXDXDXDXDXDXDX",
"DXDXDXDXDXDXDXDXDXp z I ! 5.E F m x x U Q / c.B.C.W./.(.^.^.G.N.b.A.^.sXfXfXsXpX].].pX(.F.DXDXDXDXDXDXDXDX",
"DXDXDXDXDXDXDXDXDXp e D F ! ! H F F F U Y ! ! v.M.C.Q./.(./.B.n.b.N./.pXfXsXsXpX].(.).(.DXDXDXDXDXDXDXDXDX",
"DXDXDXDXDXDXDXDXDXG w q C F E I F F I U Y Y ! ,.V.M.C.Q.H.G.c.| | Q V.H.(.].].].(.~.Q.Q.DXDXDXDXDXDXDXDXDX",
"DXDXDXDXDXDXDXDXDXJ p 5 7 0 z c D I T I U Y Q ( ,.c.B.B.C.D. .Y j f v ( ( G.~.(.~.Q.C.Q.DXDXDXDXDXDXDXDXDX",
"DXDXDXDXDXDXDXDXDX2.G 5 # X - : D I W W ~ Q Q ! ( c.m.B.D.B.b.E v c b ^  .~.~.~.Q.G.G.DXDXDXDXDXDXDXDXDXDX",
"DXDXDXDXDXDXDXDXDX2.' w + . + 8 C F W E Q Y ! ! / c.c.m.B.S.B.M.c. .( H.].].~.~.Q.G.S.DXDXDXDXDXDXDXDXDXDX",
"DXDXDXDXDXDXDXDXDX0.' w X   # 0 C I I E Q Q ! ! / | c.b.m.D.N.L.W.W.Q.(.sX].].~.H.H.DXDXDXDXDXDXDXDXDXDXDX",
"DXDXDXDXDXDXDXDXDX0.` 9 X X & e z F I E Q ! [ ,.v.| | c.b.b.v.,.) >.<.<.).].~.H.H.!.DXDXDXDXDXDXDXDXDXDXDX",
"DXDXDXDXDXDXDXDXDX0.3.w > X # e z D I ~ Q ! ] ! | | | Q N c f f f g g g S ,.G.H.!.!.DXDXDXDXDXDXDXDXDXDXDX",
"DXDXDXDXDXDXDXDXDX0.3.t w > 5 t z C Z I U Q ! { { | | R v f S Z Z ~ U S S Y m.H.!.!.DXDXDXDXDXDXDXDXDXDXDX",
"DXDXDXDXDXDXDXDXDX0.0.u.u.O.3.a e z Z Z U Y Q ! { | | v.! S _ >.1.1.J.J.J.G.D.H.L.DXDXDXDXDXDXDXDXDXDXDXDX",
"DXDXDXDXDXDXDXDXDXr.0.d.u.u.s.O.q z z x F U Q Q ! ! |  ./ U S S _ >.>.,.C.G.D.G.L.DXDXDXDXDXDXDXDXDXDXDXDX",
"DXDXDXDXDXDXDXDXDXDXg.f.u.&.i.X.+.P z q Z Z ~ E ! { v.v.v.! U b g b ) V.G.G.D.A.DXDXDXDXDXDXDXDXDXDXDXDXDX",
"DXDXDXDXDXDXDXDXDXf.%Xg.3.u.u.u =.=.&.y q C U ~ E { | n.n.N.N.N.B.G.~.].^.!.D.t.DXDXDXDXDXDXDXDXDXDXDXDXDX",
"DXDXDXDXDXDXDXDX}.%X%Xf.f.f.f.X.+.*.=.%.i q A Z ~ Q ! v.b.B.!./.].].sXsX].W.K.r.DXDXDXDXDXDXDXDXDXDXDXDXDX",
"DXDXDXDXDXDXDX:X}.%X}.d.f.d.d.i.#.%.&.%.%.u 3 2 A I W ! 5.v.B.W.Q.Q.(.].L.j.&Xl.DXDXDXDXDXDXDXDXDXDXDXDXDX",
"DXDXDXDXDXDX*X@X}.%X%Xd.i.%X#X%X=.=.=.%.%.%.u 6 4 2 A ~ ~ ! / c.c.V.C.B.j.j.&XDXDXDXDXDXDXDXDXDXDXDXDXDXDX",
"DXDXDXDXDXDX;X:X@X-X%Xi.d.-X-Xd.=.*.*.=.O.O.+.o.o.i 6 i A Z ~ ~ ! ! :.e.h.+X&XDXDXDXDXDXDXDXDXDXDXDXDXDXDX",
"DXDXDXDXDX:X;X@X*X;X%Xs.*X,X-Xd.=.a.s.-.*.$.%.%.+.o.q i i A Z Q v.5.&.:.h.+X+XDXDXDXDXDXDXDXDXDXDXDXDXDXDX",
"DXDXDX@X@X;X;X}.%X-X}.}.-X;X,Xu.=.{.{.p.*.*.*.=.+.+.%.u %.%.~ ! w.;.&.;.j.&X&XDXDXDXDXDXDXDXDXDXDXDXDXDXDX",
"DXDX*X@X@X;X:X@X}.*X*X|.|.-X=Xu.p..XoX[.-.-.-.s.-.=.%.%.%.;.j.j.h.+Xh.h.h.>X&XqXDXDXDXDXDXDXDXDXDXDXDXDXDX",
"DX@X@X@X@X@X@X:X:X-X-X}.a. X#Xd.d.$X>X X-.-.a.a.[.;.=.=.&.;.h.1XqXtXxXqX5X3X>X,XqXDXDXDXDXDXDXDXDXDXDXDXDX",
"8X;X*X*X*X*X*X;X;X*X-X:X[.[.XX#X*X=X=Xh.[.}.OXXXs.=.=.s.d.+X>X3XqXtXxXlXeXxXqXqX6X1XtXDXDXDXDXDXDXDXDXDXDX",
"8X8X;X*X2X9X-X=X;X-X=X:X;X@X$X;X-X-X>X|.OX;X>XOXs.=.s.XXoX>X,X3X1XtXrXrXrXrXtXtXtXoXtX6XDXDXDXDXDXDXDXDXDX",
"8XcXjX8X}.%X.X*X[.d.*X:X:X#X2X2X-X-X,X:X;X<X$Xd.s.h.$X=X>X$X=X3XtXtXrXrXtXtX1X1X6X6X6X6X7XDXDXDXDXDXDXDXDX",
"jX8X8XjX,X4X%Xh.i.=.u..X<X2X2X;X:X:X:X=X=X.Xs.d.>X1X3X1X$XXX>X<X6XtX7X1X X+XoXoXoX6XrX7XeXDXDXDXDXDXDXDXDX",
"cXjXjXcXkXbXlXzX5X&Xs.d..X=X2X2X6X2X:X|.{.d.XX2XtXtX<XXX.X>X,X2XtX6XoXoX X XoXoX6X>X6X6XeXDXDXDXDXDXDXDXDX",
"cXNXmXbXjXrXlXvXvXvXiXg.i.=X<X6X6X9X2X:X=X#X=X=X=X>X>X$X,X:X2X8XoX X XoXoX XoXoXoXOXoXDXDXDXDXDXDXDXDXDXDX",
"2X9X8X8XlXlX8XhXkXvXxX5Xh.:X:X:X=X6X2X=X=X.X X.XXX-X4X3XoXOX6X X=.-.-.oX1XoX XOXOX6X9XlXAXCXCXCXCXDXDXDXDX",
"8X}.|.@X=XhXjX8XbXMXzXqX3XcXjX<X:X<X-X$X X{.*X$X-X2X<X3XOXOX[.[.-.a.+XoX1XrXtX6X6X7X<X2XqXkXvXbXbXvXBXVXbX",
";X|.[.p.p.@XcX8XNXmXvXqXhXnXnXcXjXrX9X8X%Xa.:X=X=X=X-X*X{.-.X.*.>X>X[.s.a.=X8XmXmXZXzX%Xu.=.p.{.OX=XrXcXtX",
"|.p.[.-.@.a.jX9XhXMXNXvXlXjXbXcXcXnXnXvX9X6X8X*X.X{.OX=Xa.$.s X.[.tX1XoX X X9XBXCXCXAXCXNX-X{. X XOX6XrX6X",
"#.#.#.X.X.a.}.@X8XeXvXkXeXeXbXcXcXnXmXnX8X9XjXjX8Xu.-.*X X[.$.@.$. X1X1X=X XjXMXmXZXCXAXAXZXMXbXrX1XrXrX1X",
"X.u.@.s @.$.X.|.8X8XbXlXlXeX7XcXcXcXmXVXbXrXjXcXlX<X2X,X}.a.=.@.=.h.1XqX&X=XhXbXMXZXCXAXAXAXVXVXBXhX7X=XDX",
"6 u s i a.#.-.a.4XkXBXZXhX*X8XcXjX9XcXnXcXnXmXnXnXlXbXzXh.h.h.&.j.j.&XwXqX,X7XrXBXZXZXCXAXAXBXnXvXcX3XDXDX",
"a u i u d.d.d..XeXlXhXBXNX3XkXjX9X:X6X9XrXnXVXmXnXlXbXNXzXwXwXwXwXwXwXxXxX&XeXvXVXCXCXCXAXAXCXbXrXvXlXDXDX"
};
