/* XPM */
static char *WALL__7_1687274140[] = {
/* columns rows colors chars-per-pixel */
"62 68 235 2 ",
"   c #130D14",
".  c #1A141B",
"X  c #181217",
"o  c #0C070D",
"O  c #261A1C",
"+  c #2B121B",
"@  c #1E1A21",
"#  c #251C24",
"$  c #3B1923",
"%  c #2B232A",
"&  c #292427",
"*  c #352927",
"=  c #2B2832",
"-  c #342B34",
";  c #372935",
":  c #3C343C",
">  c #383437",
",  c #343132",
"<  c #2B211F",
"1  c #471D28",
"2  c #56222E",
"3  c #48372C",
"4  c #5A2733",
"5  c #473939",
"6  c #4C2D34",
"7  c #6C2D3B",
"8  c #652A37",
"9  c #732E3C",
"0  c #76313E",
"q  c #67333C",
"w  c #3E413E",
"e  c #574539",
"r  c #4A423B",
"t  c #69523D",
"y  c #664F3A",
"u  c #2B324E",
"i  c #373846",
"p  c #2E3551",
"a  c #363B54",
"s  c #292F4A",
"d  c #473B46",
"f  c #583948",
"g  c #503749",
"h  c #7C3442",
"j  c #763846",
"k  c #693943",
"l  c #3D445B",
"z  c #3A424B",
"x  c #4C454B",
"c  c #494647",
"v  c #554948",
"b  c #4C524B",
"n  c #464957",
"m  c #554855",
"M  c #585557",
"N  c #4A5358",
"B  c #67564B",
"V  c #755B44",
"C  c #654454",
"Z  c #655A5A",
"A  c #754C56",
"S  c #5B645A",
"D  c #796759",
"F  c #76614C",
"G  c #464C63",
"H  c #4C536A",
"J  c #495665",
"K  c #51566C",
"L  c #555868",
"P  c #575C72",
"I  c #5F4E62",
"U  c #675765",
"Y  c #70586B",
"T  c #54626C",
"R  c #5C6176",
"E  c #5C6876",
"W  c #6B6569",
"Q  c #696766",
"!  c #756A6C",
"~  c #687366",
"^  c #61667A",
"/  c #656A7E",
"(  c #6A6978",
")  c #766977",
"_  c #797576",
"`  c #6F7972",
"'  c #823543",
"]  c #843846",
"[  c #987B56",
"{  c #886D51",
"}  c #855D6D",
"|  c #887565",
" . c #937E6B",
".. c #896675",
"X. c #827C7D",
"o. c #887B75",
"O. c #916E78",
"+. c #835358",
"@. c #7B8878",
"#. c #7D826E",
"$. c #A5855C",
"%. c #97836D",
"&. c #838C7E",
"*. c #9A8674",
"=. c #81907E",
"-. c #B79668",
";. c #A28D79",
":. c #A9937A",
">. c #AC8F67",
",. c #C19D6C",
"<. c #C9A774",
"1. c #D9B47D",
"2. c #CCA772",
"3. c #E2BB7F",
"4. c #696E81",
"5. c #676D80",
"6. c #6D7284",
"7. c #637782",
"8. c #757A8B",
"9. c #797D8D",
"0. c #737686",
"q. c #7F6982",
"w. c #5E7080",
"e. c #826C84",
"r. c #877688",
"t. c #937C96",
"y. c #967389",
"u. c #A97A8E",
"i. c #7D8292",
"p. c #758B98",
"a. c #728792",
"s. c #7D97A6",
"d. c #8B8686",
"f. c #948C8A",
"g. c #899986",
"h. c #828594",
"j. c #8A8E9C",
"k. c #878997",
"l. c #99859B",
"z. c #8D919E",
"x. c #9E9996",
"c. c #999595",
"v. c #95908E",
"b. c #AC9986",
"n. c #B39D86",
"m. c #B6849A",
"M. c #A49C99",
"N. c #AC8295",
"B. c #98AB94",
"V. c #9DB29A",
"C. c #8FA18C",
"Z. c #BAA48C",
"A. c #A6A19D",
"S. c #BBA892",
"D. c #A2B69D",
"F. c #A0A183",
"G. c #969AA6",
"H. c #8E95A5",
"J. c #A38BA6",
"K. c #A897AB",
"L. c #AB97B2",
"P. c #B49AB7",
"I. c #BD8FA4",
"U. c #9EA1AC",
"Y. c #8AA7B4",
"T. c #90A8B4",
"R. c #A8A5A7",
"E. c #A7BCA3",
"W. c #B5B2AD",
"Q. c #A9AAB5",
"!. c #B9A2BD",
"~. c #AFB1BA",
"^. c #B2B4BD",
"/. c #B9B7B5",
"(. c #B2ACAA",
"). c #C4AD93",
"_. c #CBB499",
"`. c #C7B197",
"'. c #D4B588",
"]. c #E2BD85",
"[. c #C694AA",
"{. c #D39CB4",
"}. c #C692A9",
"|. c #D7A2B8",
" X c #C2BEB9",
".X c #CCADB0",
"XX c #E3A7BF",
"oX c #ADC4AA",
"OX c #ABC2A8",
"+X c #B1C9AD",
"@X c #B5CDB1",
"#X c #B9D2B5",
"$X c #EAC489",
"%X c #EEC98F",
"&X c #C5C2BD",
"*X c #99B9C6",
"=X c #B8A6C1",
"-X c #BBBCC4",
";X c #B7B8C1",
":X c #A6BACA",
">X c #CCB1C8",
",X c #E6ADC5",
"<X c #EDB3CB",
"1X c #F3B5CE",
"2X c #F5B8D1",
"3X c #EFBED3",
"4X c #9EC1D0",
"5X c #BEC1C7",
"6X c #A6C6D4",
"7X c #ADD1DE",
"8X c #ACCBD4",
"9X c #ADD3E1",
"0X c #B5DBEA",
"qX c #BBE3F3",
"wX c #BFE8F7",
"eX c #BBE3ED",
"rX c #CDCAC4",
"tX c #C3C5CB",
"yX c #C8C6C7",
"uX c #D1CEC7",
"iX c #CCCDD2",
"pX c #D6D6DB",
"aX c #D1D1D1",
"sX c #EBCAD8",
"dX c #DCDDE1",
"fX c #D7E2E8",
"gX c #E2E3E5",
"hX c #E6E6E9",
"jX c #EBEBED",
"kX c #E7E8EA",
"lX c #EEEEF0",
"zX c #F4F4F5",
"xX c #FAFAFA",
"cX c #F7F7F8",
"vX c #EFF0F1",
/* pixels */
"D.E.OXOXOXD.C.p.=.B.B.B.V.E.OXOXOXOXOXB.#.b r * O X   X < 3 y y 3 < X X X       ; q.L.=X=XJ.q.I Y t.P.!.=X!.L.t.I ; . s Y l.",
"OX+X@X#X@XOXV.C.=.=.@.=.V.OX@X@X#X#X#XD.@.t e 3 < < < * 3 y V t 3 3 < < < X   X > q.!.>X=Xl.( g I t.J.J.!.P.t.I s # @ = f q.",
"oX@X#X#X+XV.B.C.=.#.S ~ =.E.+X@X#X#X#XD.#.r * e y y y e y V V y t V V y 3 < X O 5 r.!.!.J.q.g d n Y Y t.L.P.t.Y f g i = i m ",
"oX@X#X#XE.C.@.g.=.@.~ ~ @.C.E.+X+X#X#XV.~ & O < r e y 3 y V V V [ ,.-.{ e 3 < < f r.P.L.y.I i ; m q.t.J.L.L.J.J.J.t.Y d ; g ",
"+X@X#X#XE.@.#.@.@.@.#.#.#.@.E.+X@X#X#XV.~ & o X X < < < 3 V { $.2.3.2.[ y 3 3 3 m r.J.J.t.I s = U J.>X=XJ.t.t.=X>XP.r.G ; g ",
"oX@X#X#XV.@.S ~ @.@.b b S @.V.oX+X@X@XV.S &   o o   X < 3 { $.2.3.3.3.$.t 3 3 e B ..t.t.e.f # # I P.>X=Xt.q.q.J.P.L.e.g = i ",
"oX@X#X@XV.` S M S b & & z #.@.V.OX@X@XV.#.&     X   X * y [ $.,.3.$X3.-.V 3 e y B ..q.q.I d . @ m J.=XJ.q.I Y q.J.t.q.g ; i ",
"oX@X#X@XD.@.~ S b & & & w b #.@.V.+X+XC.#.&     X X O 3 [ -.$.{ -.3.3.-.{ y y y C Y q.Y g %     g t.P.J.q.I Y q.t.t.Y g d x ",
"OX#X#X#XOXV.C.@.@.b b b w , w #.g.OX@XV.~ & o X X X < y $.<.$.F { -.2.,.$.V V t V D _ Y I ;   . i q.P.P.L.t.t.t.t.y.I ; # d ",
"+X@X+X+X+X+XE.V.V.@.p.@.#.w & w #.V.+XV.#.r 3 < * * e V $.1.<.$.[ -.2.2.-.[ V V { | t.t.q.g @   + I t.J.P.t.t.e.Y g = @ . = ",
"OX+XE.OX+X+XOX+X+XoX+XOXB.@.#.w S =.V.E.F.%.%.%.{ { { $.-.1.2.$.[ -.,.,.-.$.{ F | O.J.J.t.Y s . @ g Y q.e.C g u = @ . . # i ",
"OXV.C.g.V.E.+X@X@X#X@X@X+XV.@.S b ~ =.B.Z.<.<.<.,.,.,.,.2.1.2.$.$.-.2.2.,.$.$.$.[ O.l.J.t.Y 6 .   ; I q.I g # . . . . # g Y ",
"E.p.#.S @.V.+X+X@X#X#X@XOXV.@.b w b S #.:.).1.1.1.1.1.1.3.$X1.,.,.2.3.3.2.,.-.$. .O.l.L.J.) d . . ; I e.t.5.g = # # @ ; I q.",
"C.~ b S @.B.E.OX@X@X@X+XD.@.#.b b b b S #.-.2.'.3.1.3.3.$X%X$X$X3.$X$X$X$X3.1.<.:.f.J.P.P.y.g i s g Y J.P.L.q.I d # @ = m Y ",
"#.b S @.C.g.g.B.OX+XD.B.@.@.~ S S z w w F $.<.1.].].3.$X$X%X%X%X%X$X%X%X%X%X%X$X'.M.L.>X!.J.e.Y q.q.t.L.>X>XL.t.I ; # ; i i ",
"w S C.V.@.~ ~ @.C.C.@.@.@.S S S b w , , y $.-.'.'.'.S.Z._._.&X_.$X$X$X$X$X$X%X3.,.m.L.!.!.P.J.J.t.t.L.!.=X>X!.l.Y g m g g i ",
"w #.f.&.D v 5 v Z Z Z r 5 6 5 v 5 3 * ; 5 D ;.Z.S.R.G.A.R.Q.Q.R.M.Z.:.:.>.:.:.*.o.l.G.=X:X=XQ.T.L.L.P.L.:X=X=XK.t.9.t.9./ L ",
"e r +.+.A q q q 4 1 6 6 4 4 q q q 7 8 4 k W d.c.G.G.G.H.H.j.k.i.0.9.X.W M m n g L i.*X6X8X6X4X4XT.T.H.Y.s.*X6X6X:X:X:X*XT.H.",
"y ] ] ] ] ' 0 8 2 $ $ 2 4 9 0 h ' ' 0 j Y 8.i.i.9.9.9.8.8.0.( ^ R ^ 4.P G u s s H s.9XqXeX9X4Xs.p.s.Y.s.s.*X4X9XqXqXqX0X9X4X",
"h ] ] ] h 9 8 1 $ $ 1 1 1 8 9 h ' ' ' A ! 8.8.4.^ ^ R R R P K H K L E / K a s u H s.9XfXwX6Xs.J H 8.*X*X4XY.s.Y.9XqXwXqX0X8X",
"' ' ] ] 0 4 $ + + 1 1 1 $ 1 4 9 ' ' j Y ) 0.4.R P R R P K K H G G G K / w.G p s G s.9XwXqX4Xa.J J a.*X4X4Xs.a.s.4XqXwXqX0X6X",
"h ' ] ' 7 1 + O + 2 2 2 1 $ 1 8 h ' j Y 4.6.5.P P R R P P P K H n G H 5.8.w.l p J s.9XqX0X4Xp.E 7.s.4X9X9Xs.s.Y.9XwXwXqX0X6X",
"h ' ' ' 7 1 + + 1 2 8 8 2 $ $ 2 9 h j Y ^ 5./ 4.4.^ P K H P P P K H K 5.8.6.K a H s.9XwX0X4Xp.w.s.*X9X0X4X*XY.6XqXqXfXqX0X:X",
"h ' ' ' 7 2 $ $ 1 2 2 8 2 1 $ 2 7 h h A I / h.G.G.9.5.^ ^ ^ 5.0.6.E P R 5.w.P l H s.9XqX9Xs.w.@.p.*X4X4X*X*X4X0XqXqX0X0X9X6X",
"0 h ' ' 9 8 2 1 1 1 2 2 1 $ $ 2 7 0 ' h A h.~.iXaX;XU.G.G.j.h.h.k.6.P R 5.5.H a J s.9X0X4Xw.J T p.s.s.s.s.Y.6X0XqX0X0X0X9X4X",
"h ' ' ' ' 0 9 7 7 8 2 2 1 $ $ 4 7 h h j } L.pXhXjXhXgXfXpX-XU.z.9.E K 5.9.6.H l J s.9X9Xs.T N T a.E E a.*X4X9XeXqX0X0X0X6X*X",
"h ' ' ' ' ' ' 0 9 7 9 8 2 $ $ $ 4 7 9 h } Q.dXfXkXvXvXkXdXtXG.i.6.P P 6.k.9.P G J p.4XY.p.T J T J J N @.s.7X9XeX0X9X*Xs.s.Y.",
"h ' ] ' ' ' h 0 9 9 7 9 8 1 # + 1 8 h h A z.-XdXdXkXvXkXpX-Xz.0.4.^ R 6.9.8.^ H J w.p.p.E J J J T T l J s.4XeXeX0X4Xs.7.T 7.",
"' ' ] ] ] ' h j 9 9 9 9 9 2 $ $ 1 7 9 h f q.G.;XiXdXkXhXiXQ.h.i.8.5.P P 5.5.P R T E a.T J J N z T T z s T *XeXeX6XY.a.E T N ",
"' ] ] ] ] h h 9 9 7 9 h 9 8 2 2 2 k h h f K 9.Q.5XdXgXdX~.j.h.j.i.5.P P P 5.5.4.E a.T T J z z z l N , @ z p.*X*Xa.J S a.p.E ",
"h ' ] ] ] j h 9 8 7 9 0 0 0 9 8 8 7 9 7 g g 8.=XdXdXiX;Xj.9.H.G.i.6.5.P P 5.6.8.E T T T J N z z u z & X @ l E T w , T Y.8XY.",
"h ' ' ' h h j 7 7 7 9 h h 0 0 0 7 8 7 8 2 a w.H.;X;XU.k.i.H.Q.z.9.6.5.5.5.0.9.h.a.@.w.w.J N z = , z = X   = = = & z @.8X9X8X",
"h h ' ' j j 0 8 8 7 9 j 0 j 0 h j 7 8 4 6 i l H E 0.i.H.U.;XQ.h.5.R 5.4.0.i.H.z.h.9.9.7.L l z , = i = @ . & > i z L H.7X7X4X",
"k j j A C k 4 2 6 4 4 8 q 4 4 8 k k k q d s u u p G 8.~.iXiXQ.i.6.0.6.4.5.9.k.h.k.H.G.j.( M m d x m m d d g G U Q 8.Q.5X4XR.",
"Q W ! ! D v - % % 5 v v x : % % d Z ! U d p u u p a R G.iX5XQ.H.H.U.H.9.5.E 5.0.h.U.;X.X.XP.}.}.I.[.I.I.m.u.m.}.[.|.>X>X.XI.",
"! _ _ _ U d , : m U W W Q m - & : M _ ) G p u p p a K j.;X~.Q.~.-XtXtXQ.9.5.5.9.k.H.Q. X<X3X<X<X<X,X<X<X,X{.{.|.,X<X1X<X,X{.",
"! _ X._ M 5 d M W ` ) _ ! W x % % x _ ! m p u p p a R H.~.~.-XdXdXdXdX-XH.8.0.9.k.k.z.!.,X2X2X1X,X{.{.{.|.|.{.[.{.<X2X2X,X{.",
"! _ 9.! M c x U ! _ ` ! W Q M - % d W ( L p u u p G 9.Q.-X;XpXlXzXjXdXiX;Xz.9.9.9.h.j.L.>XsX2X1X,X{.u.y.u.u.u.I.{.,X2X2X,X.X",
"_ _ o._ Q m c m M W W Z M v x : - c W ! L i u u p K H.tXiXtXdXzXcXvXdXpXiX;Xz.0.0.8.k.R.rXsX2X2X<X|.}.u.y.y.u.I.{.<X2X2X,X|.",
"_ X.X.X.) M x x M U W Z x m m c i M W ! J p s u l 5.Q.pXpXpXgXcXxXcXgXdXiXtXG.0.^ / 9.K.>XsXsX2X,XXX{.{.}.u.m.[.,X<X2X3X,X{.",
"_ r.X.X._ W Q M Q W W W Q U U x x M W ! H i u p H i.-XpXiXdXlXcXxXcXkXpXiXtXU.9.5.5.6.H.;XsXsX,X}.}.}.}.}.u.}.{.<X1X1X1X<X{.",
"_ X.X.r._ W U W ! W Q W ! ! M c d x Q ! L a p l 6.Q.-X5XiXhXcXcXxXcXkXaXtXtX~.z.i.9.9.k.Q.yX>XI.y...u.u.O.} y.}.,X1X2X1X,X{.",
"_ r.&.X.! M b M U S M Z Q W m - # : Z ! L a a / U.tXtXtXdXvXcXcXxXxXjXiX-XtX~.j.9.9.9.9.k.L.(.O.j } m.m.} j f e.u.XX1X1X,X{.",
"_ _ X.X.! n 5 x M m d b L Z c & . - M ( N l R G.tXaXaXdXlXzXcXcXxXxXvXiX;X~.G.0.R 5.5.^ 6.v.l.Y j } }.}.e.f g k y.}.XX1X<X{.",
"_ ! _ _ Q x : > d c d x m c = . . ; M W U ( G.iXfXpXdXjXzXcXcXxXxXxXlXpX;XQ.k.5.^ 5.5.5.6.t.e.U Y u.XX{.y.k g g A O.}.,X,X[.",
"U M M M m : , - : x x x 5 , # . # > M ! 8.G.iXjXhXgXkXzXcXcXxXxXxXxXkXiX;XG.8.^ 4.0.0.8.h.h.X.Z Y u.XXXXy.k 6 g k } u.}.}.u.",
"> % % % - % & % : b x d > = # @ # > M 0.R.aXhXvXvXjXvXcXzXcXcXxXxXxXjXiXU.i.5.^ 5.6.0.9.k.l.r.U e.u.XX{.y.f g g f Y } y.y...",
"X   o X . # # % > : d : - & @ . # = M v.yXdXhXlXvXzXcXcXzXcXcXxXxXxXjX-Xk.^ P P R 5.6.8.r.z.d.Y } u.XX}...f g f f k f C C m ",
"o o o o   X X X . & & # . X X   X % L z./.iXiXdXjXzXxXxXcXcXcXxXxXcXhX~.r.5.P K R ^ / ( 9.h.r.Y A u.}.u.Y f f g g 6 6 ; ; : ",
"  o     X . X X       X X X . . # : _ R.~.~.;XtXpXhXvXvXvXcXxXxXxXcXdX~.H.8.P H H R / / 0.8.W m C y.m.y.C 5 1 ; $ ; ; # O # ",
"d c c c c c r > & . & - > > c c b ` c.Q.^.~.;X-X5XaXpXkXjXzXxXxXxXcXdX:Xj.0.H a n P ) i.k.d.! Z A O.u.} C e 5 v v v C v v x ",
"v.B.A.A.x.d._ M c : x Q ! _ d.c.R.R.~.^.^.^.;X-X5X5XtXiXdXlXxXxXxXcXdXQ.9.R G a n R 0.j.R.A.b.*. .;.;.u. .| |  .*.b.;.;.*. .",
"&X&XuX&XW.f.! Z v v M ! d.v.A. XrXyX^.^.~.~.^.^.^.~.~.;XiXkXxXxXxXzXiXk.^ H a a n / k.M.A.Z.f.*.;.n.n.).n.;.*.:.n.).`.`.).n.",
"&XrXuX&Xv.Z m b M M M ! f.v.M.W.rXrX/.Q.U.R.~.~.~.R.U.Q.tXkXxXxXxXlX;X8.K G G a n _ M.S.*.D B D |  .n.n.n.;.|  .;.n.`._.Z.b.",
"/.&XaX(.` r > v Q o.f.x.x.f.v.W.rXrX/.Q.U.Q.Q.Q.~.~.~.-XpXjXcXxXxXhXQ.4.K P H l n X.S.n.| e 5 v B { *.;.;. .{ +.| :.)._.S.b.",
"&XrXuXA.Z : : M o.B.W./.A.M.A. XrXuXyXtXtX5X-X-XiXpXtX5XpXlXxXxXcXdXG./ R ^ K a n o.S.Z.| B v B B B | ;. . .| F | ;.)._.S.b.",
"&XrX&Xd.b c M _ d.M./.(.M.M.(.&XrXuXaXdXkXkXgXgXkXlXgXdXdXvXxXxXzXiXj.4.0.0.K a n o.).`.b.%. . .| |  .:.:.%.D V D ;.)._.).b.",
"&XuX/.o.v v _ f.v.M.(.R.M.v.A. XrXuXaXdXgXhXkXjXvXvXjXkXhXzXxXxXjX-X9.4.0.4.G p n o.S._.).n.n.Z.Z.:.).).n.*.D B D b.`._.).b.",
" XrX/.&.b m X.x.f.X.d.c.c.f.x.W.rXuXuXuXuXtXtXaXdXpXpXaXdXvXxXxXhXQ.4.K P K a p n o.)._.).n.:.b.).).).Z.:.;.| D | :.`._.).b.",
"&X&X/.v._ ! d.x.X.M c Z ! &.M. XuXuXuXyX/.Q.Q.~.~.Q.G.Q.iXlXxXcXpXG.^ H K G p u n o.S._.).b.%.*.:.Z.).n.:.:. .D ! ;.).`.S.b.",
"&X&X/.A.M.x.A.(.f.M > > v _ R.&XuXaXuXyX5X-X5X5X;XQ.Q.;XpXzXzXkXiXG.0.9.j.a.H p n o.n._.).n.*.%.:.:.;. .%. .D B B | b.Z.).b.",
"/./.W.A.A.(.W.W.A._ v c Q d. X&XuXuXuXrXyXiXdXkXdXdXpXgXvXvXdXpX5XQ.h.G.-X>XH.R M o.Z._.`.S.:.:. .{ v 5 e B e 5 B D | ;.n.b.",
"A.A.A.A.M.A.R.(.A.&.! ! f.(. X&XuXuXrX&X#XiXkXvXjXjXjXzXcXzXdXpXiXG.8.j.^.>X~.j._ f.Z._.`.).).:.| r + X & , 5 B F | |  .b.b.",
"&.f.c.x.M.v.M.R.M.f.d.M.W.&X&XuXuXuXrX>X/.-X5X5X5X5XiXkXcXzXlXgX;X8.E p.Q.Q.G.G.j.b.Z._._.`._.S.%.e X o . 6 B |  .| | | | *.",
"! X.d.x.x.c.x.M.x.v.M.W.&X&XrXuXuXuXrX/.G.j.k.j.z.U.5XgXcXcXlXiXj.H G 6.i.9.9.9.d.f.).`.`.`._.`.;.v . X < r B |  .| | | | o.",
"Q _ d.x.A.M.A.A.M.v.c./.rXuXrXuXuXuX#XR.8./ 6.i.z.Q.iXvXcXcXdXU.P p a l H P P K L o.Z._._._.`.n.| 5 O # > e v F D |  .*. .D ",
"Z _ d.x.A.A.A.R.A.g.d.R.&XrXrX&X&X&X!.z.6.4.a.j.U.tXgXcXxXlXtXi.l u u p a H L n N | n.).`.).n. .v * * 3 5 3 e B { *.b.;.| B ",
"Q _ d.f.v.v.v.x.x.d._ v.(.W.W.W.W.(.K.h.0.` i.z.U.tXjXxXxXhX~./ n a a z G ^ / P L _ ;.n.n.b.*.Z 5 : r c r v v Z ! *.*.%.Z M "
};
